%TF.GenerationSoftware,KiCad,Pcbnew,9.0.0*%
%TF.CreationDate,2025-05-16T17:37:23-07:00*%
%TF.ProjectId,current_measure_board,63757272-656e-4745-9f6d-656173757265,rev?*%
%TF.SameCoordinates,Original*%
%TF.FileFunction,Copper,L3,Inr*%
%TF.FilePolarity,Positive*%
%FSLAX46Y46*%
G04 Gerber Fmt 4.6, Leading zero omitted, Abs format (unit mm)*
G04 Created by KiCad (PCBNEW 9.0.0) date 2025-05-16 17:37:23*
%MOMM*%
%LPD*%
G01*
G04 APERTURE LIST*
%TA.AperFunction,ViaPad*%
%ADD10C,0.600000*%
%TD*%
G04 APERTURE END LIST*
D10*
%TO.N,/Vminus*%
X169550000Y-92550000D03*
%TO.N,GND*%
X167100000Y-92500000D03*
X171500000Y-86150000D03*
X183950000Y-90400000D03*
%TO.N,/Vplus*%
X181400000Y-90350000D03*
%TO.N,GND*%
X176400000Y-105500000D03*
X118650000Y-118150000D03*
X110650000Y-105650000D03*
X128250000Y-103100000D03*
X142250000Y-87250000D03*
X162500000Y-117300000D03*
X149900000Y-86550000D03*
X128000000Y-124943750D03*
X122900000Y-87400000D03*
X137200000Y-98550000D03*
X170950000Y-101550000D03*
X116250000Y-87850000D03*
X140250000Y-112950000D03*
X133600000Y-87050000D03*
X159850000Y-86450000D03*
%TO.N,/Vplus*%
X159900000Y-117350000D03*
X157200000Y-86700000D03*
X130850000Y-87150000D03*
X135112500Y-125350000D03*
X137550000Y-100900000D03*
%TO.N,/Vminus*%
X140000000Y-110350000D03*
X120300000Y-125350000D03*
X118800000Y-87800000D03*
X144900000Y-87350000D03*
X110600000Y-102600000D03*
%TO.N,Net-(U1-IN+)*%
X154900000Y-100450000D03*
X118000000Y-97350000D03*
%TD*%
%TA.AperFunction,Conductor*%
%TO.N,GND*%
G36*
X185164939Y-85519685D02*
G01*
X185210694Y-85572489D01*
X185221900Y-85624000D01*
X185221900Y-133298200D01*
X185202215Y-133365239D01*
X185149411Y-133410994D01*
X185097900Y-133422200D01*
X110146900Y-133422200D01*
X110079861Y-133402515D01*
X110034106Y-133349711D01*
X110022900Y-133298200D01*
X110022900Y-130797648D01*
X111099500Y-130797648D01*
X111099500Y-131002351D01*
X111131522Y-131204534D01*
X111194781Y-131399223D01*
X111287715Y-131581613D01*
X111408028Y-131747213D01*
X111552786Y-131891971D01*
X111707749Y-132004556D01*
X111718390Y-132012287D01*
X111834607Y-132071503D01*
X111900776Y-132105218D01*
X111900778Y-132105218D01*
X111900781Y-132105220D01*
X112005137Y-132139127D01*
X112095465Y-132168477D01*
X112196557Y-132184488D01*
X112297648Y-132200500D01*
X112297649Y-132200500D01*
X112502351Y-132200500D01*
X112502352Y-132200500D01*
X112704534Y-132168477D01*
X112899219Y-132105220D01*
X113081610Y-132012287D01*
X113174590Y-131944732D01*
X113247213Y-131891971D01*
X113247215Y-131891968D01*
X113247219Y-131891966D01*
X113391966Y-131747219D01*
X113391968Y-131747215D01*
X113391971Y-131747213D01*
X113444732Y-131674590D01*
X113512287Y-131581610D01*
X113605220Y-131399219D01*
X113668477Y-131204534D01*
X113700500Y-131002352D01*
X113700500Y-130797648D01*
X181299500Y-130797648D01*
X181299500Y-131002351D01*
X181331522Y-131204534D01*
X181394781Y-131399223D01*
X181487715Y-131581613D01*
X181608028Y-131747213D01*
X181752786Y-131891971D01*
X181907749Y-132004556D01*
X181918390Y-132012287D01*
X182034607Y-132071503D01*
X182100776Y-132105218D01*
X182100778Y-132105218D01*
X182100781Y-132105220D01*
X182205137Y-132139127D01*
X182295465Y-132168477D01*
X182396557Y-132184488D01*
X182497648Y-132200500D01*
X182497649Y-132200500D01*
X182702351Y-132200500D01*
X182702352Y-132200500D01*
X182904534Y-132168477D01*
X183099219Y-132105220D01*
X183281610Y-132012287D01*
X183374590Y-131944732D01*
X183447213Y-131891971D01*
X183447215Y-131891968D01*
X183447219Y-131891966D01*
X183591966Y-131747219D01*
X183591968Y-131747215D01*
X183591971Y-131747213D01*
X183644732Y-131674590D01*
X183712287Y-131581610D01*
X183805220Y-131399219D01*
X183868477Y-131204534D01*
X183900500Y-131002352D01*
X183900500Y-130797648D01*
X183868477Y-130595466D01*
X183805220Y-130400781D01*
X183805218Y-130400778D01*
X183805218Y-130400776D01*
X183771503Y-130334607D01*
X183712287Y-130218390D01*
X183704556Y-130207749D01*
X183591971Y-130052786D01*
X183447213Y-129908028D01*
X183281613Y-129787715D01*
X183281612Y-129787714D01*
X183281610Y-129787713D01*
X183224653Y-129758691D01*
X183099223Y-129694781D01*
X182904534Y-129631522D01*
X182729995Y-129603878D01*
X182702352Y-129599500D01*
X182497648Y-129599500D01*
X182473329Y-129603351D01*
X182295465Y-129631522D01*
X182100776Y-129694781D01*
X181918386Y-129787715D01*
X181752786Y-129908028D01*
X181608028Y-130052786D01*
X181487715Y-130218386D01*
X181394781Y-130400776D01*
X181331522Y-130595465D01*
X181299500Y-130797648D01*
X113700500Y-130797648D01*
X113668477Y-130595466D01*
X113605220Y-130400781D01*
X113605218Y-130400778D01*
X113605218Y-130400776D01*
X113571503Y-130334607D01*
X113512287Y-130218390D01*
X113504556Y-130207749D01*
X113391971Y-130052786D01*
X113247213Y-129908028D01*
X113081613Y-129787715D01*
X113081612Y-129787714D01*
X113081610Y-129787713D01*
X113024653Y-129758691D01*
X112899223Y-129694781D01*
X112704534Y-129631522D01*
X112529995Y-129603878D01*
X112502352Y-129599500D01*
X112297648Y-129599500D01*
X112273329Y-129603351D01*
X112095465Y-129631522D01*
X111900776Y-129694781D01*
X111718386Y-129787715D01*
X111552786Y-129908028D01*
X111408028Y-130052786D01*
X111287715Y-130218386D01*
X111194781Y-130400776D01*
X111131522Y-130595465D01*
X111099500Y-130797648D01*
X110022900Y-130797648D01*
X110022900Y-125271153D01*
X119499500Y-125271153D01*
X119499500Y-125428846D01*
X119530261Y-125583489D01*
X119530264Y-125583501D01*
X119590602Y-125729172D01*
X119590609Y-125729185D01*
X119678210Y-125860288D01*
X119678213Y-125860292D01*
X119789707Y-125971786D01*
X119789711Y-125971789D01*
X119920814Y-126059390D01*
X119920827Y-126059397D01*
X120066498Y-126119735D01*
X120066503Y-126119737D01*
X120221153Y-126150499D01*
X120221156Y-126150500D01*
X120221158Y-126150500D01*
X120378844Y-126150500D01*
X120378845Y-126150499D01*
X120533497Y-126119737D01*
X120679179Y-126059394D01*
X120810289Y-125971789D01*
X120921789Y-125860289D01*
X121009394Y-125729179D01*
X121069737Y-125583497D01*
X121100500Y-125428842D01*
X121100500Y-125271158D01*
X121100500Y-125271155D01*
X121100499Y-125271153D01*
X134312000Y-125271153D01*
X134312000Y-125428846D01*
X134342761Y-125583489D01*
X134342764Y-125583501D01*
X134403102Y-125729172D01*
X134403109Y-125729185D01*
X134490710Y-125860288D01*
X134490713Y-125860292D01*
X134602207Y-125971786D01*
X134602211Y-125971789D01*
X134733314Y-126059390D01*
X134733327Y-126059397D01*
X134878998Y-126119735D01*
X134879003Y-126119737D01*
X135033653Y-126150499D01*
X135033656Y-126150500D01*
X135033658Y-126150500D01*
X135191344Y-126150500D01*
X135191345Y-126150499D01*
X135345997Y-126119737D01*
X135491679Y-126059394D01*
X135622789Y-125971789D01*
X135734289Y-125860289D01*
X135821894Y-125729179D01*
X135882237Y-125583497D01*
X135913000Y-125428842D01*
X135913000Y-125271158D01*
X135913000Y-125271155D01*
X135912999Y-125271153D01*
X135882238Y-125116510D01*
X135882237Y-125116503D01*
X135882235Y-125116498D01*
X135821897Y-124970827D01*
X135821890Y-124970814D01*
X135734289Y-124839711D01*
X135734286Y-124839707D01*
X135622792Y-124728213D01*
X135622788Y-124728210D01*
X135491685Y-124640609D01*
X135491672Y-124640602D01*
X135346001Y-124580264D01*
X135345989Y-124580261D01*
X135191345Y-124549500D01*
X135191342Y-124549500D01*
X135033658Y-124549500D01*
X135033655Y-124549500D01*
X134879010Y-124580261D01*
X134878998Y-124580264D01*
X134733327Y-124640602D01*
X134733314Y-124640609D01*
X134602211Y-124728210D01*
X134602207Y-124728213D01*
X134490713Y-124839707D01*
X134490710Y-124839711D01*
X134403109Y-124970814D01*
X134403102Y-124970827D01*
X134342764Y-125116498D01*
X134342761Y-125116510D01*
X134312000Y-125271153D01*
X121100499Y-125271153D01*
X121069738Y-125116510D01*
X121069737Y-125116503D01*
X121069735Y-125116498D01*
X121009397Y-124970827D01*
X121009390Y-124970814D01*
X120921789Y-124839711D01*
X120921786Y-124839707D01*
X120810292Y-124728213D01*
X120810288Y-124728210D01*
X120679185Y-124640609D01*
X120679172Y-124640602D01*
X120533501Y-124580264D01*
X120533489Y-124580261D01*
X120378845Y-124549500D01*
X120378842Y-124549500D01*
X120221158Y-124549500D01*
X120221155Y-124549500D01*
X120066510Y-124580261D01*
X120066498Y-124580264D01*
X119920827Y-124640602D01*
X119920814Y-124640609D01*
X119789711Y-124728210D01*
X119789707Y-124728213D01*
X119678213Y-124839707D01*
X119678210Y-124839711D01*
X119590609Y-124970814D01*
X119590602Y-124970827D01*
X119530264Y-125116498D01*
X119530261Y-125116510D01*
X119499500Y-125271153D01*
X110022900Y-125271153D01*
X110022900Y-117271153D01*
X159099500Y-117271153D01*
X159099500Y-117428846D01*
X159130261Y-117583489D01*
X159130264Y-117583501D01*
X159190602Y-117729172D01*
X159190609Y-117729185D01*
X159278210Y-117860288D01*
X159278213Y-117860292D01*
X159389707Y-117971786D01*
X159389711Y-117971789D01*
X159520814Y-118059390D01*
X159520827Y-118059397D01*
X159666498Y-118119735D01*
X159666503Y-118119737D01*
X159821153Y-118150499D01*
X159821156Y-118150500D01*
X159821158Y-118150500D01*
X159978844Y-118150500D01*
X159978845Y-118150499D01*
X160133497Y-118119737D01*
X160279179Y-118059394D01*
X160410289Y-117971789D01*
X160521789Y-117860289D01*
X160609394Y-117729179D01*
X160669737Y-117583497D01*
X160700500Y-117428842D01*
X160700500Y-117271158D01*
X160700500Y-117271155D01*
X160700499Y-117271153D01*
X160669738Y-117116510D01*
X160669737Y-117116503D01*
X160669735Y-117116498D01*
X160609397Y-116970827D01*
X160609390Y-116970814D01*
X160521789Y-116839711D01*
X160521786Y-116839707D01*
X160410292Y-116728213D01*
X160410288Y-116728210D01*
X160279185Y-116640609D01*
X160279172Y-116640602D01*
X160133501Y-116580264D01*
X160133489Y-116580261D01*
X159978845Y-116549500D01*
X159978842Y-116549500D01*
X159821158Y-116549500D01*
X159821155Y-116549500D01*
X159666510Y-116580261D01*
X159666498Y-116580264D01*
X159520827Y-116640602D01*
X159520814Y-116640609D01*
X159389711Y-116728210D01*
X159389707Y-116728213D01*
X159278213Y-116839707D01*
X159278210Y-116839711D01*
X159190609Y-116970814D01*
X159190602Y-116970827D01*
X159130264Y-117116498D01*
X159130261Y-117116510D01*
X159099500Y-117271153D01*
X110022900Y-117271153D01*
X110022900Y-110271153D01*
X139199500Y-110271153D01*
X139199500Y-110428846D01*
X139230261Y-110583489D01*
X139230264Y-110583501D01*
X139290602Y-110729172D01*
X139290609Y-110729185D01*
X139378210Y-110860288D01*
X139378213Y-110860292D01*
X139489707Y-110971786D01*
X139489711Y-110971789D01*
X139620814Y-111059390D01*
X139620827Y-111059397D01*
X139766498Y-111119735D01*
X139766503Y-111119737D01*
X139921153Y-111150499D01*
X139921156Y-111150500D01*
X139921158Y-111150500D01*
X140078844Y-111150500D01*
X140078845Y-111150499D01*
X140233497Y-111119737D01*
X140379179Y-111059394D01*
X140510289Y-110971789D01*
X140621789Y-110860289D01*
X140709394Y-110729179D01*
X140769737Y-110583497D01*
X140800500Y-110428842D01*
X140800500Y-110271158D01*
X140800500Y-110271155D01*
X140800499Y-110271153D01*
X140769738Y-110116510D01*
X140769737Y-110116503D01*
X140769735Y-110116498D01*
X140709397Y-109970827D01*
X140709390Y-109970814D01*
X140621789Y-109839711D01*
X140621786Y-109839707D01*
X140510292Y-109728213D01*
X140510288Y-109728210D01*
X140379185Y-109640609D01*
X140379172Y-109640602D01*
X140233501Y-109580264D01*
X140233489Y-109580261D01*
X140078845Y-109549500D01*
X140078842Y-109549500D01*
X139921158Y-109549500D01*
X139921155Y-109549500D01*
X139766510Y-109580261D01*
X139766498Y-109580264D01*
X139620827Y-109640602D01*
X139620814Y-109640609D01*
X139489711Y-109728210D01*
X139489707Y-109728213D01*
X139378213Y-109839707D01*
X139378210Y-109839711D01*
X139290609Y-109970814D01*
X139290602Y-109970827D01*
X139230264Y-110116498D01*
X139230261Y-110116510D01*
X139199500Y-110271153D01*
X110022900Y-110271153D01*
X110022900Y-103409135D01*
X110042585Y-103342096D01*
X110095389Y-103296341D01*
X110164547Y-103286397D01*
X110215794Y-103306035D01*
X110220821Y-103309394D01*
X110220823Y-103309395D01*
X110220827Y-103309397D01*
X110299771Y-103342096D01*
X110366503Y-103369737D01*
X110521153Y-103400499D01*
X110521156Y-103400500D01*
X110521158Y-103400500D01*
X110678844Y-103400500D01*
X110678845Y-103400499D01*
X110833497Y-103369737D01*
X110979179Y-103309394D01*
X111110289Y-103221789D01*
X111221789Y-103110289D01*
X111309394Y-102979179D01*
X111369737Y-102833497D01*
X111400500Y-102678842D01*
X111400500Y-102521158D01*
X111400500Y-102521155D01*
X111400499Y-102521153D01*
X111369738Y-102366510D01*
X111369737Y-102366503D01*
X111369735Y-102366498D01*
X111309397Y-102220827D01*
X111309390Y-102220814D01*
X111221789Y-102089711D01*
X111221786Y-102089707D01*
X111110292Y-101978213D01*
X111110288Y-101978210D01*
X110979185Y-101890609D01*
X110979172Y-101890602D01*
X110833501Y-101830264D01*
X110833489Y-101830261D01*
X110678845Y-101799500D01*
X110678842Y-101799500D01*
X110521158Y-101799500D01*
X110521155Y-101799500D01*
X110366510Y-101830261D01*
X110366498Y-101830264D01*
X110220827Y-101890602D01*
X110220811Y-101890611D01*
X110215789Y-101893967D01*
X110149111Y-101914844D01*
X110081731Y-101896358D01*
X110035042Y-101844379D01*
X110022900Y-101790864D01*
X110022900Y-100821153D01*
X136749500Y-100821153D01*
X136749500Y-100978846D01*
X136780261Y-101133489D01*
X136780264Y-101133501D01*
X136840602Y-101279172D01*
X136840609Y-101279185D01*
X136928210Y-101410288D01*
X136928213Y-101410292D01*
X137039707Y-101521786D01*
X137039711Y-101521789D01*
X137170814Y-101609390D01*
X137170827Y-101609397D01*
X137316498Y-101669735D01*
X137316503Y-101669737D01*
X137471153Y-101700499D01*
X137471156Y-101700500D01*
X137471158Y-101700500D01*
X137628844Y-101700500D01*
X137628845Y-101700499D01*
X137783497Y-101669737D01*
X137929179Y-101609394D01*
X138060289Y-101521789D01*
X138171789Y-101410289D01*
X138259394Y-101279179D01*
X138319737Y-101133497D01*
X138350500Y-100978842D01*
X138350500Y-100821158D01*
X138350500Y-100821155D01*
X138350499Y-100821153D01*
X138323117Y-100683497D01*
X138319737Y-100666503D01*
X138319735Y-100666498D01*
X138259397Y-100520827D01*
X138259390Y-100520814D01*
X138201354Y-100433957D01*
X138171789Y-100389711D01*
X138171786Y-100389707D01*
X138153232Y-100371153D01*
X154099500Y-100371153D01*
X154099500Y-100528846D01*
X154130261Y-100683489D01*
X154130264Y-100683501D01*
X154190602Y-100829172D01*
X154190609Y-100829185D01*
X154278210Y-100960288D01*
X154278213Y-100960292D01*
X154389707Y-101071786D01*
X154389711Y-101071789D01*
X154520814Y-101159390D01*
X154520827Y-101159397D01*
X154666498Y-101219735D01*
X154666503Y-101219737D01*
X154821153Y-101250499D01*
X154821156Y-101250500D01*
X154821158Y-101250500D01*
X154978844Y-101250500D01*
X154978845Y-101250499D01*
X155133497Y-101219737D01*
X155279179Y-101159394D01*
X155410289Y-101071789D01*
X155521789Y-100960289D01*
X155609394Y-100829179D01*
X155612719Y-100821153D01*
X155669735Y-100683501D01*
X155669737Y-100683497D01*
X155700500Y-100528842D01*
X155700500Y-100371158D01*
X155700500Y-100371155D01*
X155700499Y-100371153D01*
X155682012Y-100278213D01*
X155669737Y-100216503D01*
X155669735Y-100216498D01*
X155609397Y-100070827D01*
X155609390Y-100070814D01*
X155521789Y-99939711D01*
X155521786Y-99939707D01*
X155410292Y-99828213D01*
X155410288Y-99828210D01*
X155279185Y-99740609D01*
X155279172Y-99740602D01*
X155133501Y-99680264D01*
X155133489Y-99680261D01*
X154978845Y-99649500D01*
X154978842Y-99649500D01*
X154821158Y-99649500D01*
X154821155Y-99649500D01*
X154666510Y-99680261D01*
X154666498Y-99680264D01*
X154520827Y-99740602D01*
X154520814Y-99740609D01*
X154389711Y-99828210D01*
X154389707Y-99828213D01*
X154278213Y-99939707D01*
X154278210Y-99939711D01*
X154190609Y-100070814D01*
X154190602Y-100070827D01*
X154130264Y-100216498D01*
X154130261Y-100216510D01*
X154099500Y-100371153D01*
X138153232Y-100371153D01*
X138060292Y-100278213D01*
X138060288Y-100278210D01*
X137929185Y-100190609D01*
X137929172Y-100190602D01*
X137783501Y-100130264D01*
X137783489Y-100130261D01*
X137628845Y-100099500D01*
X137628842Y-100099500D01*
X137471158Y-100099500D01*
X137471155Y-100099500D01*
X137316510Y-100130261D01*
X137316498Y-100130264D01*
X137170827Y-100190602D01*
X137170814Y-100190609D01*
X137039711Y-100278210D01*
X137039707Y-100278213D01*
X136928213Y-100389707D01*
X136928210Y-100389711D01*
X136840609Y-100520814D01*
X136840602Y-100520827D01*
X136780264Y-100666498D01*
X136780261Y-100666510D01*
X136749500Y-100821153D01*
X110022900Y-100821153D01*
X110022900Y-97271153D01*
X117199500Y-97271153D01*
X117199500Y-97428846D01*
X117230261Y-97583489D01*
X117230264Y-97583501D01*
X117290602Y-97729172D01*
X117290609Y-97729185D01*
X117378210Y-97860288D01*
X117378213Y-97860292D01*
X117489707Y-97971786D01*
X117489711Y-97971789D01*
X117620814Y-98059390D01*
X117620827Y-98059397D01*
X117766498Y-98119735D01*
X117766503Y-98119737D01*
X117921153Y-98150499D01*
X117921156Y-98150500D01*
X117921158Y-98150500D01*
X118078844Y-98150500D01*
X118078845Y-98150499D01*
X118233497Y-98119737D01*
X118379179Y-98059394D01*
X118510289Y-97971789D01*
X118621789Y-97860289D01*
X118709394Y-97729179D01*
X118769737Y-97583497D01*
X118800500Y-97428842D01*
X118800500Y-97271158D01*
X118800500Y-97271155D01*
X118800499Y-97271153D01*
X118769738Y-97116510D01*
X118769737Y-97116503D01*
X118769735Y-97116498D01*
X118709397Y-96970827D01*
X118709390Y-96970814D01*
X118621789Y-96839711D01*
X118621786Y-96839707D01*
X118510292Y-96728213D01*
X118510288Y-96728210D01*
X118379185Y-96640609D01*
X118379172Y-96640602D01*
X118233501Y-96580264D01*
X118233489Y-96580261D01*
X118078845Y-96549500D01*
X118078842Y-96549500D01*
X117921158Y-96549500D01*
X117921155Y-96549500D01*
X117766510Y-96580261D01*
X117766498Y-96580264D01*
X117620827Y-96640602D01*
X117620814Y-96640609D01*
X117489711Y-96728210D01*
X117489707Y-96728213D01*
X117378213Y-96839707D01*
X117378210Y-96839711D01*
X117290609Y-96970814D01*
X117290602Y-96970827D01*
X117230264Y-97116498D01*
X117230261Y-97116510D01*
X117199500Y-97271153D01*
X110022900Y-97271153D01*
X110022900Y-92471153D01*
X168749500Y-92471153D01*
X168749500Y-92628846D01*
X168780261Y-92783489D01*
X168780264Y-92783501D01*
X168840602Y-92929172D01*
X168840609Y-92929185D01*
X168928210Y-93060288D01*
X168928213Y-93060292D01*
X169039707Y-93171786D01*
X169039711Y-93171789D01*
X169170814Y-93259390D01*
X169170827Y-93259397D01*
X169316498Y-93319735D01*
X169316503Y-93319737D01*
X169471153Y-93350499D01*
X169471156Y-93350500D01*
X169471158Y-93350500D01*
X169628844Y-93350500D01*
X169628845Y-93350499D01*
X169783497Y-93319737D01*
X169929179Y-93259394D01*
X170060289Y-93171789D01*
X170171789Y-93060289D01*
X170259394Y-92929179D01*
X170319737Y-92783497D01*
X170350500Y-92628842D01*
X170350500Y-92471158D01*
X170350500Y-92471155D01*
X170350499Y-92471153D01*
X170319738Y-92316510D01*
X170319737Y-92316503D01*
X170319735Y-92316498D01*
X170259397Y-92170827D01*
X170259390Y-92170814D01*
X170171789Y-92039711D01*
X170171786Y-92039707D01*
X170060292Y-91928213D01*
X170060288Y-91928210D01*
X169929185Y-91840609D01*
X169929172Y-91840602D01*
X169783501Y-91780264D01*
X169783489Y-91780261D01*
X169628845Y-91749500D01*
X169628842Y-91749500D01*
X169471158Y-91749500D01*
X169471155Y-91749500D01*
X169316510Y-91780261D01*
X169316498Y-91780264D01*
X169170827Y-91840602D01*
X169170814Y-91840609D01*
X169039711Y-91928210D01*
X169039707Y-91928213D01*
X168928213Y-92039707D01*
X168928210Y-92039711D01*
X168840609Y-92170814D01*
X168840602Y-92170827D01*
X168780264Y-92316498D01*
X168780261Y-92316510D01*
X168749500Y-92471153D01*
X110022900Y-92471153D01*
X110022900Y-90271153D01*
X180599500Y-90271153D01*
X180599500Y-90428846D01*
X180630261Y-90583489D01*
X180630264Y-90583501D01*
X180690602Y-90729172D01*
X180690609Y-90729185D01*
X180778210Y-90860288D01*
X180778213Y-90860292D01*
X180889707Y-90971786D01*
X180889711Y-90971789D01*
X181020814Y-91059390D01*
X181020827Y-91059397D01*
X181166498Y-91119735D01*
X181166503Y-91119737D01*
X181321153Y-91150499D01*
X181321156Y-91150500D01*
X181321158Y-91150500D01*
X181478844Y-91150500D01*
X181478845Y-91150499D01*
X181633497Y-91119737D01*
X181779179Y-91059394D01*
X181910289Y-90971789D01*
X182021789Y-90860289D01*
X182109394Y-90729179D01*
X182169737Y-90583497D01*
X182200500Y-90428842D01*
X182200500Y-90271158D01*
X182200500Y-90271155D01*
X182200499Y-90271153D01*
X182169738Y-90116510D01*
X182169737Y-90116503D01*
X182169735Y-90116498D01*
X182109397Y-89970827D01*
X182109390Y-89970814D01*
X182021789Y-89839711D01*
X182021786Y-89839707D01*
X181910292Y-89728213D01*
X181910288Y-89728210D01*
X181779185Y-89640609D01*
X181779172Y-89640602D01*
X181633501Y-89580264D01*
X181633489Y-89580261D01*
X181478845Y-89549500D01*
X181478842Y-89549500D01*
X181321158Y-89549500D01*
X181321155Y-89549500D01*
X181166510Y-89580261D01*
X181166498Y-89580264D01*
X181020827Y-89640602D01*
X181020814Y-89640609D01*
X180889711Y-89728210D01*
X180889707Y-89728213D01*
X180778213Y-89839707D01*
X180778210Y-89839711D01*
X180690609Y-89970814D01*
X180690602Y-89970827D01*
X180630264Y-90116498D01*
X180630261Y-90116510D01*
X180599500Y-90271153D01*
X110022900Y-90271153D01*
X110022900Y-87721153D01*
X117999500Y-87721153D01*
X117999500Y-87878846D01*
X118030261Y-88033489D01*
X118030264Y-88033501D01*
X118090602Y-88179172D01*
X118090609Y-88179185D01*
X118178210Y-88310288D01*
X118178213Y-88310292D01*
X118289707Y-88421786D01*
X118289711Y-88421789D01*
X118420814Y-88509390D01*
X118420827Y-88509397D01*
X118566498Y-88569735D01*
X118566503Y-88569737D01*
X118721153Y-88600499D01*
X118721156Y-88600500D01*
X118721158Y-88600500D01*
X118878844Y-88600500D01*
X118878845Y-88600499D01*
X119033497Y-88569737D01*
X119179179Y-88509394D01*
X119310289Y-88421789D01*
X119421789Y-88310289D01*
X119509394Y-88179179D01*
X119569737Y-88033497D01*
X119600500Y-87878842D01*
X119600500Y-87721158D01*
X119600500Y-87721155D01*
X119600499Y-87721153D01*
X119573117Y-87583497D01*
X119569737Y-87566503D01*
X119569735Y-87566498D01*
X119509397Y-87420827D01*
X119509390Y-87420814D01*
X119421789Y-87289711D01*
X119421786Y-87289707D01*
X119310289Y-87178210D01*
X119295259Y-87168168D01*
X119179185Y-87090609D01*
X119179172Y-87090602D01*
X119132217Y-87071153D01*
X130049500Y-87071153D01*
X130049500Y-87228846D01*
X130080261Y-87383489D01*
X130080264Y-87383501D01*
X130140602Y-87529172D01*
X130140609Y-87529185D01*
X130228210Y-87660288D01*
X130228213Y-87660292D01*
X130339707Y-87771786D01*
X130339711Y-87771789D01*
X130470814Y-87859390D01*
X130470827Y-87859397D01*
X130616498Y-87919735D01*
X130616503Y-87919737D01*
X130771153Y-87950499D01*
X130771156Y-87950500D01*
X130771158Y-87950500D01*
X130928844Y-87950500D01*
X130928845Y-87950499D01*
X131083497Y-87919737D01*
X131229179Y-87859394D01*
X131360289Y-87771789D01*
X131471789Y-87660289D01*
X131559394Y-87529179D01*
X131619737Y-87383497D01*
X131642083Y-87271158D01*
X131642084Y-87271153D01*
X144099500Y-87271153D01*
X144099500Y-87428846D01*
X144130261Y-87583489D01*
X144130264Y-87583501D01*
X144190602Y-87729172D01*
X144190609Y-87729185D01*
X144278210Y-87860288D01*
X144278213Y-87860292D01*
X144389707Y-87971786D01*
X144389711Y-87971789D01*
X144520814Y-88059390D01*
X144520827Y-88059397D01*
X144666498Y-88119735D01*
X144666503Y-88119737D01*
X144821153Y-88150499D01*
X144821156Y-88150500D01*
X144821158Y-88150500D01*
X144978844Y-88150500D01*
X144978845Y-88150499D01*
X145133497Y-88119737D01*
X145279179Y-88059394D01*
X145410289Y-87971789D01*
X145521789Y-87860289D01*
X145609394Y-87729179D01*
X145612719Y-87721153D01*
X145669735Y-87583501D01*
X145669737Y-87583497D01*
X145700500Y-87428842D01*
X145700500Y-87271158D01*
X145700500Y-87271155D01*
X145700499Y-87271153D01*
X145694476Y-87240874D01*
X145669737Y-87116503D01*
X145669735Y-87116498D01*
X145609397Y-86970827D01*
X145609390Y-86970814D01*
X145521789Y-86839711D01*
X145521786Y-86839707D01*
X145410289Y-86728210D01*
X145395259Y-86718168D01*
X145279185Y-86640609D01*
X145279172Y-86640602D01*
X145232217Y-86621153D01*
X156399500Y-86621153D01*
X156399500Y-86778846D01*
X156430261Y-86933489D01*
X156430264Y-86933501D01*
X156490602Y-87079172D01*
X156490609Y-87079185D01*
X156578210Y-87210288D01*
X156578213Y-87210292D01*
X156689707Y-87321786D01*
X156689711Y-87321789D01*
X156820814Y-87409390D01*
X156820827Y-87409397D01*
X156966498Y-87469735D01*
X156966503Y-87469737D01*
X157121153Y-87500499D01*
X157121156Y-87500500D01*
X157121158Y-87500500D01*
X157278844Y-87500500D01*
X157278845Y-87500499D01*
X157433497Y-87469737D01*
X157551592Y-87420821D01*
X157579172Y-87409397D01*
X157579172Y-87409396D01*
X157579179Y-87409394D01*
X157710289Y-87321789D01*
X157821789Y-87210289D01*
X157909394Y-87079179D01*
X157912719Y-87071153D01*
X157929655Y-87030264D01*
X157969737Y-86933497D01*
X158000500Y-86778842D01*
X158000500Y-86621158D01*
X158000500Y-86621155D01*
X158000499Y-86621153D01*
X157982012Y-86528213D01*
X157969737Y-86466503D01*
X157969735Y-86466498D01*
X157909397Y-86320827D01*
X157909390Y-86320814D01*
X157821789Y-86189711D01*
X157821786Y-86189707D01*
X157710292Y-86078213D01*
X157710288Y-86078210D01*
X157579185Y-85990609D01*
X157579172Y-85990602D01*
X157433501Y-85930264D01*
X157433489Y-85930261D01*
X157278845Y-85899500D01*
X157278842Y-85899500D01*
X157121158Y-85899500D01*
X157121155Y-85899500D01*
X156966510Y-85930261D01*
X156966498Y-85930264D01*
X156820827Y-85990602D01*
X156820814Y-85990609D01*
X156689711Y-86078210D01*
X156689707Y-86078213D01*
X156578213Y-86189707D01*
X156578210Y-86189711D01*
X156490609Y-86320814D01*
X156490602Y-86320827D01*
X156430264Y-86466498D01*
X156430261Y-86466510D01*
X156399500Y-86621153D01*
X145232217Y-86621153D01*
X145133501Y-86580264D01*
X145133489Y-86580261D01*
X144978845Y-86549500D01*
X144978842Y-86549500D01*
X144821158Y-86549500D01*
X144821155Y-86549500D01*
X144666510Y-86580261D01*
X144666498Y-86580264D01*
X144520827Y-86640602D01*
X144520814Y-86640609D01*
X144389711Y-86728210D01*
X144389707Y-86728213D01*
X144278213Y-86839707D01*
X144278210Y-86839711D01*
X144190609Y-86970814D01*
X144190602Y-86970827D01*
X144130264Y-87116498D01*
X144130261Y-87116510D01*
X144099500Y-87271153D01*
X131642084Y-87271153D01*
X131648107Y-87240875D01*
X131648107Y-87240874D01*
X131650500Y-87228844D01*
X131650500Y-87071155D01*
X131650499Y-87071153D01*
X131630543Y-86970827D01*
X131619737Y-86916503D01*
X131587929Y-86839711D01*
X131559397Y-86770827D01*
X131559390Y-86770814D01*
X131471789Y-86639711D01*
X131471786Y-86639707D01*
X131360292Y-86528213D01*
X131360288Y-86528210D01*
X131229185Y-86440609D01*
X131229172Y-86440602D01*
X131083501Y-86380264D01*
X131083489Y-86380261D01*
X130928845Y-86349500D01*
X130928842Y-86349500D01*
X130771158Y-86349500D01*
X130771155Y-86349500D01*
X130616510Y-86380261D01*
X130616498Y-86380264D01*
X130470827Y-86440602D01*
X130470814Y-86440609D01*
X130339711Y-86528210D01*
X130339707Y-86528213D01*
X130228213Y-86639707D01*
X130228210Y-86639711D01*
X130140609Y-86770814D01*
X130140602Y-86770827D01*
X130080264Y-86916498D01*
X130080261Y-86916510D01*
X130049500Y-87071153D01*
X119132217Y-87071153D01*
X119033501Y-87030264D01*
X119033489Y-87030261D01*
X118878845Y-86999500D01*
X118878842Y-86999500D01*
X118721158Y-86999500D01*
X118721155Y-86999500D01*
X118566510Y-87030261D01*
X118566498Y-87030264D01*
X118420827Y-87090602D01*
X118420814Y-87090609D01*
X118289711Y-87178210D01*
X118289707Y-87178213D01*
X118178213Y-87289707D01*
X118178210Y-87289711D01*
X118090609Y-87420814D01*
X118090602Y-87420827D01*
X118030264Y-87566498D01*
X118030261Y-87566510D01*
X117999500Y-87721153D01*
X110022900Y-87721153D01*
X110022900Y-85624000D01*
X110042585Y-85556961D01*
X110095389Y-85511206D01*
X110146900Y-85500000D01*
X185097900Y-85500000D01*
X185164939Y-85519685D01*
G37*
%TD.AperFunction*%
%TD*%
M02*
