%TF.GenerationSoftware,KiCad,Pcbnew,9.0.0*%
%TF.CreationDate,2025-05-16T17:37:23-07:00*%
%TF.ProjectId,current_measure_board,63757272-656e-4745-9f6d-656173757265,rev?*%
%TF.SameCoordinates,Original*%
%TF.FileFunction,Paste,Top*%
%TF.FilePolarity,Positive*%
%FSLAX46Y46*%
G04 Gerber Fmt 4.6, Leading zero omitted, Abs format (unit mm)*
G04 Created by KiCad (PCBNEW 9.0.0) date 2025-05-16 17:37:23*
%MOMM*%
%LPD*%
G01*
G04 APERTURE LIST*
G04 Aperture macros list*
%AMRoundRect*
0 Rectangle with rounded corners*
0 $1 Rounding radius*
0 $2 $3 $4 $5 $6 $7 $8 $9 X,Y pos of 4 corners*
0 Add a 4 corners polygon primitive as box body*
4,1,4,$2,$3,$4,$5,$6,$7,$8,$9,$2,$3,0*
0 Add four circle primitives for the rounded corners*
1,1,$1+$1,$2,$3*
1,1,$1+$1,$4,$5*
1,1,$1+$1,$6,$7*
1,1,$1+$1,$8,$9*
0 Add four rect primitives between the rounded corners*
20,1,$1+$1,$2,$3,$4,$5,0*
20,1,$1+$1,$4,$5,$6,$7,0*
20,1,$1+$1,$6,$7,$8,$9,0*
20,1,$1+$1,$8,$9,$2,$3,0*%
G04 Aperture macros list end*
%ADD10R,5.080000X2.540000*%
%ADD11RoundRect,0.190500X-0.444500X-1.079500X0.444500X-1.079500X0.444500X1.079500X-0.444500X1.079500X0*%
%ADD12R,1.000000X1.450000*%
%ADD13R,1.150000X1.450000*%
%ADD14R,1.800000X1.250000*%
%ADD15R,1.470000X1.030000*%
%ADD16R,2.540000X5.080000*%
%ADD17R,1.030000X1.470000*%
%ADD18R,1.250000X1.800000*%
%ADD19R,3.000000X1.000000*%
%ADD20R,1.450000X1.000000*%
%ADD21R,0.660400X0.889000*%
%ADD22R,1.092200X0.381000*%
%ADD23R,1.257300X0.482600*%
%ADD24R,0.762000X1.346200*%
%ADD25R,1.450000X1.150000*%
G04 APERTURE END LIST*
D10*
%TO.C,TP8*%
X180900000Y-99187500D03*
%TD*%
D11*
%TO.C,TP10*%
X169150000Y-60550000D03*
%TD*%
D10*
%TO.C,TP9*%
X180950000Y-105387500D03*
%TD*%
%TO.C,TP7*%
X113850000Y-118200000D03*
%TD*%
D12*
%TO.C,R10*%
X173950000Y-75050000D03*
X172050000Y-75050000D03*
%TD*%
D13*
%TO.C,C26*%
X173900000Y-77950000D03*
X172100000Y-77950000D03*
%TD*%
D14*
%TO.C,C25*%
X167100000Y-90500000D03*
X169700000Y-90500000D03*
%TD*%
%TO.C,C24*%
X167050000Y-87650000D03*
X169650000Y-87650000D03*
%TD*%
%TO.C,C23*%
X181400000Y-88100000D03*
X184000000Y-88100000D03*
%TD*%
%TO.C,C22*%
X181400000Y-84250000D03*
X184000000Y-84250000D03*
%TD*%
D15*
%TO.C,C3*%
X125250000Y-65300000D03*
X125250000Y-63700000D03*
%TD*%
D16*
%TO.C,TP6*%
X127837500Y-130000000D03*
%TD*%
D17*
%TO.C,C5*%
X136472400Y-63022700D03*
X138072400Y-63022700D03*
%TD*%
D18*
%TO.C,C12*%
X131400000Y-100900000D03*
X131400000Y-98300000D03*
%TD*%
D19*
%TO.C,R2*%
X163462500Y-98960000D03*
X167962500Y-101500000D03*
X163462500Y-104040000D03*
%TD*%
D20*
%TO.C,R9*%
X150150000Y-67600000D03*
X150150000Y-69500000D03*
%TD*%
D14*
%TO.C,C7*%
X159850000Y-114750000D03*
X162450000Y-114750000D03*
%TD*%
D21*
%TO.C,R1*%
X124227700Y-99050000D03*
X125472300Y-99050000D03*
%TD*%
D14*
%TO.C,C14*%
X130850000Y-78000000D03*
X133450000Y-78000000D03*
%TD*%
%TO.C,C20*%
X142100000Y-80400000D03*
X144700000Y-80400000D03*
%TD*%
%TO.C,C17*%
X116200000Y-85400000D03*
X118800000Y-85400000D03*
%TD*%
%TO.C,C15*%
X131000000Y-82700000D03*
X133600000Y-82700000D03*
%TD*%
D11*
%TO.C,TP4*%
X125300000Y-60250000D03*
%TD*%
D18*
%TO.C,C10*%
X113550000Y-105250000D03*
X113550000Y-102650000D03*
%TD*%
%TO.C,C13*%
X135350000Y-101000000D03*
X135350000Y-98400000D03*
%TD*%
D22*
%TO.C,U1*%
X122566400Y-100625001D03*
X122566400Y-101274999D03*
X122566400Y-101925001D03*
X122566400Y-102574999D03*
X126833600Y-102574999D03*
X126833600Y-101925001D03*
X126833600Y-101274999D03*
X126833600Y-100625001D03*
%TD*%
D10*
%TO.C,TP3*%
X113750000Y-111100000D03*
%TD*%
D14*
%TO.C,C21*%
X142150000Y-85200000D03*
X144750000Y-85200000D03*
%TD*%
D20*
%TO.C,R7*%
X156800000Y-71350000D03*
X156800000Y-69450000D03*
%TD*%
%TO.C,R8*%
X125200000Y-67800000D03*
X125200000Y-69700000D03*
%TD*%
D18*
%TO.C,C8*%
X142300000Y-112950000D03*
X142300000Y-110350000D03*
%TD*%
D16*
%TO.C,TP2*%
X120250000Y-129900000D03*
%TD*%
D23*
%TO.C,U2*%
X121577450Y-75895000D03*
X121577450Y-77165000D03*
X121577450Y-78435000D03*
X121577450Y-79705000D03*
X126822550Y-79705000D03*
X126822550Y-78435000D03*
X126822550Y-77165000D03*
X126822550Y-75895000D03*
%TD*%
D14*
%TO.C,C16*%
X116200000Y-80750000D03*
X118800000Y-80750000D03*
%TD*%
%TO.C,C19*%
X157200000Y-82000000D03*
X159800000Y-82000000D03*
%TD*%
D15*
%TO.C,C4*%
X150150000Y-65300000D03*
X150150000Y-63700000D03*
%TD*%
D12*
%TO.C,R3*%
X154850000Y-102350000D03*
X152950000Y-102350000D03*
%TD*%
D23*
%TO.C,U4*%
X148000000Y-75050000D03*
X148000000Y-76320000D03*
X148000000Y-77590000D03*
X148000000Y-78860000D03*
X153245100Y-78860000D03*
X153245100Y-77590000D03*
X153245100Y-76320000D03*
X153245100Y-75050000D03*
%TD*%
%TO.C,U3*%
X151627450Y-106545000D03*
X151627450Y-107815000D03*
X151627450Y-109085000D03*
X151627450Y-110355000D03*
X156872550Y-110355000D03*
X156872550Y-109085000D03*
X156872550Y-107815000D03*
X156872550Y-106545000D03*
%TD*%
D16*
%TO.C,TP1*%
X135050000Y-129900000D03*
%TD*%
D18*
%TO.C,C9*%
X146350000Y-112900000D03*
X146350000Y-110300000D03*
%TD*%
D24*
%TO.C,R6*%
X157124500Y-98800000D03*
X158775500Y-98800000D03*
%TD*%
D18*
%TO.C,C11*%
X117474999Y-105225001D03*
X117474999Y-102625001D03*
%TD*%
D25*
%TO.C,C2*%
X159800000Y-71350000D03*
X159800000Y-69550000D03*
%TD*%
%TO.C,C1*%
X131600000Y-71550000D03*
X131600000Y-69750000D03*
%TD*%
D14*
%TO.C,C18*%
X157200000Y-77400000D03*
X159800000Y-77400000D03*
%TD*%
D11*
%TO.C,TP5*%
X150100000Y-60350000D03*
%TD*%
D14*
%TO.C,C6*%
X160000000Y-110100000D03*
X162600000Y-110100000D03*
%TD*%
D20*
%TO.C,R4*%
X135100000Y-71650000D03*
X135100000Y-69750000D03*
%TD*%
D23*
%TO.C,U5*%
X178522550Y-81545000D03*
X178522550Y-82815000D03*
X178522550Y-84085000D03*
X178522550Y-85355000D03*
X173277450Y-85355000D03*
X173277450Y-84085000D03*
X173277450Y-82815000D03*
X173277450Y-81545000D03*
%TD*%
M02*
