M48
; DRILL file {KiCad 9.0.0} date 2025-05-16T17:37:21-0700
; FORMAT={-:-/ absolute / metric / decimal}
; #@! TF.CreationDate,2025-05-16T17:37:21-07:00
; #@! TF.GenerationSoftware,Kicad,Pcbnew,9.0.0
; #@! TF.FileFunction,Plated,1,6,PTH
FMAT,2
METRIC
; #@! TA.AperFunction,Plated,PTH,ViaDrill
T1C0.300
%
G90
G05
T1
X110.6Y-102.6
X110.65Y-105.65
X116.25Y-87.85
X118.0Y-97.35
X118.65Y-118.15
X118.8Y-87.8
X120.3Y-125.35
X122.9Y-87.4
X128.0Y-124.944
X128.25Y-103.1
X130.85Y-87.15
X133.6Y-87.05
X135.112Y-125.35
X137.2Y-98.55
X137.55Y-100.9
X140.0Y-110.35
X140.25Y-112.95
X142.25Y-87.25
X144.9Y-87.35
X149.9Y-86.55
X154.9Y-100.45
X157.2Y-86.7
X159.85Y-86.45
X159.9Y-117.35
X162.5Y-117.3
X167.1Y-92.5
X169.55Y-92.55
X170.95Y-101.55
X171.5Y-86.15
X176.4Y-105.5
X181.4Y-90.35
X183.95Y-90.4
M30
