%TF.GenerationSoftware,KiCad,Pcbnew,9.0.0*%
%TF.CreationDate,2025-05-16T17:37:23-07:00*%
%TF.ProjectId,current_measure_board,63757272-656e-4745-9f6d-656173757265,rev?*%
%TF.SameCoordinates,Original*%
%TF.FileFunction,Copper,L4,Inr*%
%TF.FilePolarity,Positive*%
%FSLAX46Y46*%
G04 Gerber Fmt 4.6, Leading zero omitted, Abs format (unit mm)*
G04 Created by KiCad (PCBNEW 9.0.0) date 2025-05-16 17:37:23*
%MOMM*%
%LPD*%
G01*
G04 APERTURE LIST*
%TA.AperFunction,ViaPad*%
%ADD10C,0.600000*%
%TD*%
G04 APERTURE END LIST*
D10*
%TO.N,/Vminus*%
X169550000Y-92550000D03*
%TO.N,GND*%
X167100000Y-92500000D03*
X171500000Y-86150000D03*
X183950000Y-90400000D03*
%TO.N,/Vplus*%
X181400000Y-90350000D03*
%TO.N,GND*%
X176400000Y-105500000D03*
X118650000Y-118150000D03*
X110650000Y-105650000D03*
X128250000Y-103100000D03*
X142250000Y-87250000D03*
X162500000Y-117300000D03*
X149900000Y-86550000D03*
X128000000Y-124943750D03*
X122900000Y-87400000D03*
X137200000Y-98550000D03*
X170950000Y-101550000D03*
X116250000Y-87850000D03*
X140250000Y-112950000D03*
X133600000Y-87050000D03*
X159850000Y-86450000D03*
%TO.N,/Vplus*%
X159900000Y-117350000D03*
X157200000Y-86700000D03*
X130850000Y-87150000D03*
X135112500Y-125350000D03*
X137550000Y-100900000D03*
%TO.N,/Vminus*%
X140000000Y-110350000D03*
X120300000Y-125350000D03*
X118800000Y-87800000D03*
X144900000Y-87350000D03*
X110600000Y-102600000D03*
%TO.N,Net-(U1-IN+)*%
X154900000Y-100450000D03*
X118000000Y-97350000D03*
%TD*%
%TA.AperFunction,Conductor*%
%TO.N,/Vplus*%
G36*
X159495344Y-85519685D02*
G01*
X159541099Y-85572489D01*
X159551043Y-85641647D01*
X159522018Y-85705203D01*
X159475756Y-85738562D01*
X159470821Y-85740605D01*
X159470814Y-85740609D01*
X159339711Y-85828210D01*
X159339707Y-85828213D01*
X159228213Y-85939707D01*
X159228210Y-85939711D01*
X159140609Y-86070814D01*
X159140602Y-86070827D01*
X159080264Y-86216498D01*
X159080261Y-86216510D01*
X159049500Y-86371153D01*
X159049500Y-86528846D01*
X159080261Y-86683489D01*
X159080264Y-86683501D01*
X159140602Y-86829172D01*
X159140609Y-86829185D01*
X159228210Y-86960288D01*
X159228213Y-86960292D01*
X159339707Y-87071786D01*
X159339711Y-87071789D01*
X159470814Y-87159390D01*
X159470827Y-87159397D01*
X159516254Y-87178213D01*
X159616503Y-87219737D01*
X159771153Y-87250499D01*
X159771156Y-87250500D01*
X159771158Y-87250500D01*
X159928844Y-87250500D01*
X159928845Y-87250499D01*
X160083497Y-87219737D01*
X160229179Y-87159394D01*
X160360289Y-87071789D01*
X160471789Y-86960289D01*
X160559394Y-86829179D01*
X160619737Y-86683497D01*
X160650500Y-86528842D01*
X160650500Y-86371158D01*
X160650500Y-86371155D01*
X160650499Y-86371153D01*
X160632419Y-86280261D01*
X160619737Y-86216503D01*
X160559534Y-86071158D01*
X160559397Y-86070827D01*
X160559390Y-86070814D01*
X160471789Y-85939711D01*
X160471786Y-85939707D01*
X160360292Y-85828213D01*
X160360288Y-85828210D01*
X160229185Y-85740609D01*
X160229178Y-85740605D01*
X160224244Y-85738562D01*
X160169840Y-85694721D01*
X160147774Y-85628428D01*
X160165052Y-85560728D01*
X160216189Y-85513117D01*
X160271695Y-85500000D01*
X170739575Y-85500000D01*
X170806614Y-85519685D01*
X170852369Y-85572489D01*
X170862313Y-85641647D01*
X170842677Y-85692891D01*
X170790609Y-85770814D01*
X170790602Y-85770827D01*
X170730264Y-85916498D01*
X170730261Y-85916510D01*
X170699500Y-86071153D01*
X170699500Y-86228846D01*
X170730261Y-86383489D01*
X170730264Y-86383501D01*
X170790602Y-86529172D01*
X170790609Y-86529185D01*
X170878210Y-86660288D01*
X170878213Y-86660292D01*
X170989707Y-86771786D01*
X170989711Y-86771789D01*
X171120814Y-86859390D01*
X171120827Y-86859397D01*
X171194013Y-86889711D01*
X171266503Y-86919737D01*
X171421153Y-86950499D01*
X171421156Y-86950500D01*
X171421158Y-86950500D01*
X171578844Y-86950500D01*
X171578845Y-86950499D01*
X171733497Y-86919737D01*
X171851592Y-86870821D01*
X171879172Y-86859397D01*
X171879172Y-86859396D01*
X171879179Y-86859394D01*
X172010289Y-86771789D01*
X172121789Y-86660289D01*
X172209394Y-86529179D01*
X172269737Y-86383497D01*
X172300500Y-86228842D01*
X172300500Y-86071158D01*
X172300500Y-86071155D01*
X172300499Y-86071153D01*
X172274353Y-85939711D01*
X172269737Y-85916503D01*
X172238298Y-85840602D01*
X172209397Y-85770827D01*
X172209390Y-85770814D01*
X172157323Y-85692891D01*
X172136445Y-85626214D01*
X172154929Y-85558834D01*
X172206908Y-85512143D01*
X172260425Y-85500000D01*
X185097900Y-85500000D01*
X185164939Y-85519685D01*
X185210694Y-85572489D01*
X185221900Y-85624000D01*
X185221900Y-133298200D01*
X185202215Y-133365239D01*
X185149411Y-133410994D01*
X185097900Y-133422200D01*
X110146900Y-133422200D01*
X110079861Y-133402515D01*
X110034106Y-133349711D01*
X110022900Y-133298200D01*
X110022900Y-130797648D01*
X111099500Y-130797648D01*
X111099500Y-131002351D01*
X111131522Y-131204534D01*
X111194781Y-131399223D01*
X111287715Y-131581613D01*
X111408028Y-131747213D01*
X111552786Y-131891971D01*
X111707749Y-132004556D01*
X111718390Y-132012287D01*
X111834607Y-132071503D01*
X111900776Y-132105218D01*
X111900778Y-132105218D01*
X111900781Y-132105220D01*
X112005137Y-132139127D01*
X112095465Y-132168477D01*
X112196557Y-132184488D01*
X112297648Y-132200500D01*
X112297649Y-132200500D01*
X112502351Y-132200500D01*
X112502352Y-132200500D01*
X112704534Y-132168477D01*
X112899219Y-132105220D01*
X113081610Y-132012287D01*
X113174590Y-131944732D01*
X113247213Y-131891971D01*
X113247215Y-131891968D01*
X113247219Y-131891966D01*
X113391966Y-131747219D01*
X113391968Y-131747215D01*
X113391971Y-131747213D01*
X113444732Y-131674590D01*
X113512287Y-131581610D01*
X113605220Y-131399219D01*
X113668477Y-131204534D01*
X113700500Y-131002352D01*
X113700500Y-130797648D01*
X181299500Y-130797648D01*
X181299500Y-131002351D01*
X181331522Y-131204534D01*
X181394781Y-131399223D01*
X181487715Y-131581613D01*
X181608028Y-131747213D01*
X181752786Y-131891971D01*
X181907749Y-132004556D01*
X181918390Y-132012287D01*
X182034607Y-132071503D01*
X182100776Y-132105218D01*
X182100778Y-132105218D01*
X182100781Y-132105220D01*
X182205137Y-132139127D01*
X182295465Y-132168477D01*
X182396557Y-132184488D01*
X182497648Y-132200500D01*
X182497649Y-132200500D01*
X182702351Y-132200500D01*
X182702352Y-132200500D01*
X182904534Y-132168477D01*
X183099219Y-132105220D01*
X183281610Y-132012287D01*
X183374590Y-131944732D01*
X183447213Y-131891971D01*
X183447215Y-131891968D01*
X183447219Y-131891966D01*
X183591966Y-131747219D01*
X183591968Y-131747215D01*
X183591971Y-131747213D01*
X183644732Y-131674590D01*
X183712287Y-131581610D01*
X183805220Y-131399219D01*
X183868477Y-131204534D01*
X183900500Y-131002352D01*
X183900500Y-130797648D01*
X183868477Y-130595466D01*
X183805220Y-130400781D01*
X183805218Y-130400778D01*
X183805218Y-130400776D01*
X183771503Y-130334607D01*
X183712287Y-130218390D01*
X183704556Y-130207749D01*
X183591971Y-130052786D01*
X183447213Y-129908028D01*
X183281613Y-129787715D01*
X183281612Y-129787714D01*
X183281610Y-129787713D01*
X183224653Y-129758691D01*
X183099223Y-129694781D01*
X182904534Y-129631522D01*
X182729995Y-129603878D01*
X182702352Y-129599500D01*
X182497648Y-129599500D01*
X182473329Y-129603351D01*
X182295465Y-129631522D01*
X182100776Y-129694781D01*
X181918386Y-129787715D01*
X181752786Y-129908028D01*
X181608028Y-130052786D01*
X181487715Y-130218386D01*
X181394781Y-130400776D01*
X181331522Y-130595465D01*
X181299500Y-130797648D01*
X113700500Y-130797648D01*
X113668477Y-130595466D01*
X113605220Y-130400781D01*
X113605218Y-130400778D01*
X113605218Y-130400776D01*
X113571503Y-130334607D01*
X113512287Y-130218390D01*
X113504556Y-130207749D01*
X113391971Y-130052786D01*
X113247213Y-129908028D01*
X113081613Y-129787715D01*
X113081612Y-129787714D01*
X113081610Y-129787713D01*
X113024653Y-129758691D01*
X112899223Y-129694781D01*
X112704534Y-129631522D01*
X112529995Y-129603878D01*
X112502352Y-129599500D01*
X112297648Y-129599500D01*
X112273329Y-129603351D01*
X112095465Y-129631522D01*
X111900776Y-129694781D01*
X111718386Y-129787715D01*
X111552786Y-129908028D01*
X111408028Y-130052786D01*
X111287715Y-130218386D01*
X111194781Y-130400776D01*
X111131522Y-130595465D01*
X111099500Y-130797648D01*
X110022900Y-130797648D01*
X110022900Y-125271153D01*
X119499500Y-125271153D01*
X119499500Y-125428846D01*
X119530261Y-125583489D01*
X119530264Y-125583501D01*
X119590602Y-125729172D01*
X119590609Y-125729185D01*
X119678210Y-125860288D01*
X119678213Y-125860292D01*
X119789707Y-125971786D01*
X119789711Y-125971789D01*
X119920814Y-126059390D01*
X119920827Y-126059397D01*
X120066498Y-126119735D01*
X120066503Y-126119737D01*
X120221153Y-126150499D01*
X120221156Y-126150500D01*
X120221158Y-126150500D01*
X120378844Y-126150500D01*
X120378845Y-126150499D01*
X120533497Y-126119737D01*
X120679179Y-126059394D01*
X120810289Y-125971789D01*
X120921789Y-125860289D01*
X121009394Y-125729179D01*
X121069737Y-125583497D01*
X121100500Y-125428842D01*
X121100500Y-125271158D01*
X121100500Y-125271155D01*
X121100499Y-125271153D01*
X121069737Y-125116503D01*
X121030838Y-125022592D01*
X121009397Y-124970827D01*
X121009387Y-124970809D01*
X120980588Y-124927708D01*
X120980587Y-124927707D01*
X120938622Y-124864903D01*
X127199500Y-124864903D01*
X127199500Y-125022596D01*
X127230261Y-125177239D01*
X127230264Y-125177251D01*
X127290602Y-125322922D01*
X127290609Y-125322935D01*
X127378210Y-125454038D01*
X127378213Y-125454042D01*
X127489707Y-125565536D01*
X127489711Y-125565539D01*
X127620814Y-125653140D01*
X127620827Y-125653147D01*
X127766498Y-125713485D01*
X127766503Y-125713487D01*
X127921153Y-125744249D01*
X127921156Y-125744250D01*
X127921158Y-125744250D01*
X128078844Y-125744250D01*
X128078845Y-125744249D01*
X128233497Y-125713487D01*
X128379179Y-125653144D01*
X128510289Y-125565539D01*
X128621789Y-125454039D01*
X128709394Y-125322929D01*
X128769737Y-125177247D01*
X128800500Y-125022592D01*
X128800500Y-124864908D01*
X128800500Y-124864905D01*
X128800499Y-124864903D01*
X128769738Y-124710260D01*
X128769737Y-124710253D01*
X128740890Y-124640609D01*
X128709397Y-124564577D01*
X128709390Y-124564564D01*
X128621789Y-124433461D01*
X128621786Y-124433457D01*
X128510292Y-124321963D01*
X128510288Y-124321960D01*
X128379185Y-124234359D01*
X128379172Y-124234352D01*
X128233501Y-124174014D01*
X128233489Y-124174011D01*
X128078845Y-124143250D01*
X128078842Y-124143250D01*
X127921158Y-124143250D01*
X127921155Y-124143250D01*
X127766510Y-124174011D01*
X127766498Y-124174014D01*
X127620827Y-124234352D01*
X127620814Y-124234359D01*
X127489711Y-124321960D01*
X127489707Y-124321963D01*
X127378213Y-124433457D01*
X127378210Y-124433461D01*
X127290609Y-124564564D01*
X127290602Y-124564577D01*
X127230264Y-124710248D01*
X127230261Y-124710260D01*
X127199500Y-124864903D01*
X120938622Y-124864903D01*
X120921789Y-124839711D01*
X120921786Y-124839707D01*
X120810292Y-124728213D01*
X120810288Y-124728210D01*
X120679185Y-124640609D01*
X120679172Y-124640602D01*
X120533501Y-124580264D01*
X120533489Y-124580261D01*
X120378845Y-124549500D01*
X120378842Y-124549500D01*
X120221158Y-124549500D01*
X120221155Y-124549500D01*
X120066510Y-124580261D01*
X120066498Y-124580264D01*
X119920827Y-124640602D01*
X119920814Y-124640609D01*
X119789711Y-124728210D01*
X119789707Y-124728213D01*
X119678213Y-124839707D01*
X119678210Y-124839711D01*
X119590609Y-124970814D01*
X119590602Y-124970827D01*
X119530264Y-125116498D01*
X119530261Y-125116510D01*
X119499500Y-125271153D01*
X110022900Y-125271153D01*
X110022900Y-118071153D01*
X117849500Y-118071153D01*
X117849500Y-118228846D01*
X117880261Y-118383489D01*
X117880264Y-118383501D01*
X117940602Y-118529172D01*
X117940609Y-118529185D01*
X118028210Y-118660288D01*
X118028213Y-118660292D01*
X118139707Y-118771786D01*
X118139711Y-118771789D01*
X118270814Y-118859390D01*
X118270827Y-118859397D01*
X118416498Y-118919735D01*
X118416503Y-118919737D01*
X118571153Y-118950499D01*
X118571156Y-118950500D01*
X118571158Y-118950500D01*
X118728844Y-118950500D01*
X118728845Y-118950499D01*
X118883497Y-118919737D01*
X119029179Y-118859394D01*
X119160289Y-118771789D01*
X119271789Y-118660289D01*
X119359394Y-118529179D01*
X119419737Y-118383497D01*
X119450500Y-118228842D01*
X119450500Y-118071158D01*
X119450500Y-118071155D01*
X119450499Y-118071153D01*
X119420788Y-117921789D01*
X119419737Y-117916503D01*
X119419735Y-117916498D01*
X119359397Y-117770827D01*
X119359390Y-117770814D01*
X119271789Y-117639711D01*
X119271786Y-117639707D01*
X119160292Y-117528213D01*
X119160288Y-117528210D01*
X119029185Y-117440609D01*
X119029172Y-117440602D01*
X118883501Y-117380264D01*
X118883489Y-117380261D01*
X118728845Y-117349500D01*
X118728842Y-117349500D01*
X118571158Y-117349500D01*
X118571155Y-117349500D01*
X118416510Y-117380261D01*
X118416498Y-117380264D01*
X118270827Y-117440602D01*
X118270814Y-117440609D01*
X118139711Y-117528210D01*
X118139707Y-117528213D01*
X118028213Y-117639707D01*
X118028210Y-117639711D01*
X117940609Y-117770814D01*
X117940602Y-117770827D01*
X117880264Y-117916498D01*
X117880261Y-117916510D01*
X117849500Y-118071153D01*
X110022900Y-118071153D01*
X110022900Y-117221153D01*
X161699500Y-117221153D01*
X161699500Y-117378846D01*
X161730261Y-117533489D01*
X161730264Y-117533501D01*
X161790602Y-117679172D01*
X161790609Y-117679185D01*
X161878210Y-117810288D01*
X161878213Y-117810292D01*
X161989707Y-117921786D01*
X161989711Y-117921789D01*
X162120814Y-118009390D01*
X162120827Y-118009397D01*
X162266498Y-118069735D01*
X162266503Y-118069737D01*
X162421153Y-118100499D01*
X162421156Y-118100500D01*
X162421158Y-118100500D01*
X162578844Y-118100500D01*
X162578845Y-118100499D01*
X162733497Y-118069737D01*
X162879179Y-118009394D01*
X163010289Y-117921789D01*
X163121789Y-117810289D01*
X163209394Y-117679179D01*
X163269737Y-117533497D01*
X163300500Y-117378842D01*
X163300500Y-117221158D01*
X163300500Y-117221155D01*
X163300499Y-117221153D01*
X163269738Y-117066510D01*
X163269737Y-117066503D01*
X163269735Y-117066498D01*
X163209397Y-116920827D01*
X163209390Y-116920814D01*
X163121789Y-116789711D01*
X163121786Y-116789707D01*
X163010292Y-116678213D01*
X163010288Y-116678210D01*
X162879185Y-116590609D01*
X162879172Y-116590602D01*
X162733501Y-116530264D01*
X162733489Y-116530261D01*
X162578845Y-116499500D01*
X162578842Y-116499500D01*
X162421158Y-116499500D01*
X162421155Y-116499500D01*
X162266510Y-116530261D01*
X162266498Y-116530264D01*
X162120827Y-116590602D01*
X162120814Y-116590609D01*
X161989711Y-116678210D01*
X161989707Y-116678213D01*
X161878213Y-116789707D01*
X161878210Y-116789711D01*
X161790609Y-116920814D01*
X161790602Y-116920827D01*
X161730264Y-117066498D01*
X161730261Y-117066510D01*
X161699500Y-117221153D01*
X110022900Y-117221153D01*
X110022900Y-112871153D01*
X139449500Y-112871153D01*
X139449500Y-113028846D01*
X139480261Y-113183489D01*
X139480264Y-113183501D01*
X139540602Y-113329172D01*
X139540609Y-113329185D01*
X139628210Y-113460288D01*
X139628213Y-113460292D01*
X139739707Y-113571786D01*
X139739711Y-113571789D01*
X139870814Y-113659390D01*
X139870827Y-113659397D01*
X140016498Y-113719735D01*
X140016503Y-113719737D01*
X140171153Y-113750499D01*
X140171156Y-113750500D01*
X140171158Y-113750500D01*
X140328844Y-113750500D01*
X140328845Y-113750499D01*
X140483497Y-113719737D01*
X140629179Y-113659394D01*
X140760289Y-113571789D01*
X140871789Y-113460289D01*
X140959394Y-113329179D01*
X141019737Y-113183497D01*
X141050500Y-113028842D01*
X141050500Y-112871158D01*
X141050500Y-112871155D01*
X141050499Y-112871153D01*
X141019738Y-112716510D01*
X141019737Y-112716503D01*
X141019735Y-112716498D01*
X140959397Y-112570827D01*
X140959390Y-112570814D01*
X140871789Y-112439711D01*
X140871786Y-112439707D01*
X140760292Y-112328213D01*
X140760288Y-112328210D01*
X140629185Y-112240609D01*
X140629172Y-112240602D01*
X140483501Y-112180264D01*
X140483489Y-112180261D01*
X140328845Y-112149500D01*
X140328842Y-112149500D01*
X140171158Y-112149500D01*
X140171155Y-112149500D01*
X140016510Y-112180261D01*
X140016498Y-112180264D01*
X139870827Y-112240602D01*
X139870814Y-112240609D01*
X139739711Y-112328210D01*
X139739707Y-112328213D01*
X139628213Y-112439707D01*
X139628210Y-112439711D01*
X139540609Y-112570814D01*
X139540602Y-112570827D01*
X139480264Y-112716498D01*
X139480261Y-112716510D01*
X139449500Y-112871153D01*
X110022900Y-112871153D01*
X110022900Y-110271153D01*
X139199500Y-110271153D01*
X139199500Y-110428846D01*
X139230261Y-110583489D01*
X139230264Y-110583501D01*
X139290602Y-110729172D01*
X139290609Y-110729185D01*
X139378210Y-110860288D01*
X139378213Y-110860292D01*
X139489707Y-110971786D01*
X139489711Y-110971789D01*
X139620814Y-111059390D01*
X139620827Y-111059397D01*
X139766498Y-111119735D01*
X139766503Y-111119737D01*
X139921153Y-111150499D01*
X139921156Y-111150500D01*
X139921158Y-111150500D01*
X140078844Y-111150500D01*
X140078845Y-111150499D01*
X140233497Y-111119737D01*
X140379179Y-111059394D01*
X140510289Y-110971789D01*
X140621789Y-110860289D01*
X140709394Y-110729179D01*
X140769737Y-110583497D01*
X140800500Y-110428842D01*
X140800500Y-110271158D01*
X140800500Y-110271155D01*
X140800499Y-110271153D01*
X140769738Y-110116510D01*
X140769737Y-110116503D01*
X140769735Y-110116498D01*
X140709397Y-109970827D01*
X140709390Y-109970814D01*
X140621789Y-109839711D01*
X140621786Y-109839707D01*
X140510292Y-109728213D01*
X140510288Y-109728210D01*
X140379185Y-109640609D01*
X140379172Y-109640602D01*
X140233501Y-109580264D01*
X140233489Y-109580261D01*
X140078845Y-109549500D01*
X140078842Y-109549500D01*
X139921158Y-109549500D01*
X139921155Y-109549500D01*
X139766510Y-109580261D01*
X139766498Y-109580264D01*
X139620827Y-109640602D01*
X139620814Y-109640609D01*
X139489711Y-109728210D01*
X139489707Y-109728213D01*
X139378213Y-109839707D01*
X139378210Y-109839711D01*
X139290609Y-109970814D01*
X139290602Y-109970827D01*
X139230264Y-110116498D01*
X139230261Y-110116510D01*
X139199500Y-110271153D01*
X110022900Y-110271153D01*
X110022900Y-106425726D01*
X110042585Y-106358687D01*
X110095389Y-106312932D01*
X110164547Y-106302988D01*
X110215789Y-106322622D01*
X110270821Y-106359394D01*
X110270823Y-106359395D01*
X110270827Y-106359397D01*
X110416498Y-106419735D01*
X110416503Y-106419737D01*
X110571153Y-106450499D01*
X110571156Y-106450500D01*
X110571158Y-106450500D01*
X110728844Y-106450500D01*
X110728845Y-106450499D01*
X110883497Y-106419737D01*
X111029179Y-106359394D01*
X111160289Y-106271789D01*
X111271789Y-106160289D01*
X111359394Y-106029179D01*
X111419737Y-105883497D01*
X111450500Y-105728842D01*
X111450500Y-105571158D01*
X111450500Y-105571155D01*
X111450499Y-105571153D01*
X111424264Y-105439257D01*
X111420662Y-105421153D01*
X175599500Y-105421153D01*
X175599500Y-105578846D01*
X175630261Y-105733489D01*
X175630264Y-105733501D01*
X175690602Y-105879172D01*
X175690609Y-105879185D01*
X175778210Y-106010288D01*
X175778213Y-106010292D01*
X175889707Y-106121786D01*
X175889711Y-106121789D01*
X176020814Y-106209390D01*
X176020827Y-106209397D01*
X176166498Y-106269735D01*
X176166503Y-106269737D01*
X176321153Y-106300499D01*
X176321156Y-106300500D01*
X176321158Y-106300500D01*
X176478844Y-106300500D01*
X176478845Y-106300499D01*
X176633497Y-106269737D01*
X176779179Y-106209394D01*
X176910289Y-106121789D01*
X177021789Y-106010289D01*
X177109394Y-105879179D01*
X177169737Y-105733497D01*
X177200500Y-105578842D01*
X177200500Y-105421158D01*
X177200500Y-105421155D01*
X177200499Y-105421153D01*
X177170596Y-105270821D01*
X177169737Y-105266503D01*
X177120511Y-105147659D01*
X177109397Y-105120827D01*
X177109390Y-105120814D01*
X177021789Y-104989711D01*
X177021786Y-104989707D01*
X176910292Y-104878213D01*
X176910288Y-104878210D01*
X176779185Y-104790609D01*
X176779172Y-104790602D01*
X176633501Y-104730264D01*
X176633489Y-104730261D01*
X176478845Y-104699500D01*
X176478842Y-104699500D01*
X176321158Y-104699500D01*
X176321155Y-104699500D01*
X176166510Y-104730261D01*
X176166498Y-104730264D01*
X176020827Y-104790602D01*
X176020814Y-104790609D01*
X175889711Y-104878210D01*
X175889707Y-104878213D01*
X175778213Y-104989707D01*
X175778210Y-104989711D01*
X175690609Y-105120814D01*
X175690602Y-105120827D01*
X175630264Y-105266498D01*
X175630261Y-105266510D01*
X175599500Y-105421153D01*
X111420662Y-105421153D01*
X111419738Y-105416507D01*
X111419735Y-105416498D01*
X111359397Y-105270827D01*
X111359390Y-105270814D01*
X111271789Y-105139711D01*
X111271786Y-105139707D01*
X111160292Y-105028213D01*
X111160288Y-105028210D01*
X111029185Y-104940609D01*
X111029172Y-104940602D01*
X110883501Y-104880264D01*
X110883489Y-104880261D01*
X110728845Y-104849500D01*
X110728842Y-104849500D01*
X110571158Y-104849500D01*
X110571155Y-104849500D01*
X110416510Y-104880261D01*
X110416498Y-104880264D01*
X110270827Y-104940602D01*
X110270809Y-104940612D01*
X110215790Y-104977375D01*
X110149113Y-104998253D01*
X110081733Y-104979768D01*
X110035043Y-104927789D01*
X110022900Y-104874273D01*
X110022900Y-103409135D01*
X110042585Y-103342096D01*
X110095389Y-103296341D01*
X110164547Y-103286397D01*
X110215794Y-103306035D01*
X110220821Y-103309394D01*
X110220823Y-103309395D01*
X110220827Y-103309397D01*
X110299771Y-103342096D01*
X110366503Y-103369737D01*
X110521153Y-103400499D01*
X110521156Y-103400500D01*
X110521158Y-103400500D01*
X110678844Y-103400500D01*
X110678845Y-103400499D01*
X110833497Y-103369737D01*
X110979179Y-103309394D01*
X111110289Y-103221789D01*
X111221789Y-103110289D01*
X111281348Y-103021153D01*
X127449500Y-103021153D01*
X127449500Y-103178846D01*
X127480261Y-103333489D01*
X127480264Y-103333501D01*
X127540602Y-103479172D01*
X127540609Y-103479185D01*
X127628210Y-103610288D01*
X127628213Y-103610292D01*
X127739707Y-103721786D01*
X127739711Y-103721789D01*
X127870814Y-103809390D01*
X127870827Y-103809397D01*
X128016498Y-103869735D01*
X128016503Y-103869737D01*
X128171153Y-103900499D01*
X128171156Y-103900500D01*
X128171158Y-103900500D01*
X128328844Y-103900500D01*
X128328845Y-103900499D01*
X128483497Y-103869737D01*
X128629179Y-103809394D01*
X128760289Y-103721789D01*
X128871789Y-103610289D01*
X128959394Y-103479179D01*
X129019737Y-103333497D01*
X129050500Y-103178842D01*
X129050500Y-103021158D01*
X129050500Y-103021155D01*
X129050499Y-103021153D01*
X129019738Y-102866510D01*
X129019737Y-102866503D01*
X129006062Y-102833489D01*
X128959397Y-102720827D01*
X128959390Y-102720814D01*
X128871789Y-102589711D01*
X128871786Y-102589707D01*
X128760292Y-102478213D01*
X128760288Y-102478210D01*
X128629185Y-102390609D01*
X128629172Y-102390602D01*
X128483501Y-102330264D01*
X128483489Y-102330261D01*
X128328845Y-102299500D01*
X128328842Y-102299500D01*
X128171158Y-102299500D01*
X128171155Y-102299500D01*
X128016510Y-102330261D01*
X128016498Y-102330264D01*
X127870827Y-102390602D01*
X127870814Y-102390609D01*
X127739711Y-102478210D01*
X127739707Y-102478213D01*
X127628213Y-102589707D01*
X127628210Y-102589711D01*
X127540609Y-102720814D01*
X127540602Y-102720827D01*
X127480264Y-102866498D01*
X127480261Y-102866510D01*
X127449500Y-103021153D01*
X111281348Y-103021153D01*
X111309394Y-102979179D01*
X111369737Y-102833497D01*
X111400500Y-102678842D01*
X111400500Y-102521158D01*
X111400500Y-102521155D01*
X111400499Y-102521153D01*
X111374531Y-102390606D01*
X111369737Y-102366503D01*
X111369735Y-102366498D01*
X111309397Y-102220827D01*
X111309390Y-102220814D01*
X111221789Y-102089711D01*
X111221786Y-102089707D01*
X111110292Y-101978213D01*
X111110288Y-101978210D01*
X110979185Y-101890609D01*
X110979172Y-101890602D01*
X110833501Y-101830264D01*
X110833489Y-101830261D01*
X110678845Y-101799500D01*
X110678842Y-101799500D01*
X110521158Y-101799500D01*
X110521155Y-101799500D01*
X110366510Y-101830261D01*
X110366498Y-101830264D01*
X110220827Y-101890602D01*
X110220811Y-101890611D01*
X110215789Y-101893967D01*
X110149111Y-101914844D01*
X110081731Y-101896358D01*
X110035042Y-101844379D01*
X110022900Y-101790864D01*
X110022900Y-101471153D01*
X170149500Y-101471153D01*
X170149500Y-101628846D01*
X170180261Y-101783489D01*
X170180264Y-101783501D01*
X170240602Y-101929172D01*
X170240609Y-101929185D01*
X170328210Y-102060288D01*
X170328213Y-102060292D01*
X170439707Y-102171786D01*
X170439711Y-102171789D01*
X170570814Y-102259390D01*
X170570827Y-102259397D01*
X170667646Y-102299500D01*
X170716503Y-102319737D01*
X170871153Y-102350499D01*
X170871156Y-102350500D01*
X170871158Y-102350500D01*
X171028844Y-102350500D01*
X171028845Y-102350499D01*
X171183497Y-102319737D01*
X171329179Y-102259394D01*
X171460289Y-102171789D01*
X171571789Y-102060289D01*
X171659394Y-101929179D01*
X171719737Y-101783497D01*
X171750500Y-101628842D01*
X171750500Y-101471158D01*
X171750500Y-101471155D01*
X171750499Y-101471153D01*
X171719738Y-101316510D01*
X171719737Y-101316503D01*
X171692398Y-101250500D01*
X171659397Y-101170827D01*
X171659390Y-101170814D01*
X171571789Y-101039711D01*
X171571786Y-101039707D01*
X171460292Y-100928213D01*
X171460288Y-100928210D01*
X171329185Y-100840609D01*
X171329172Y-100840602D01*
X171183501Y-100780264D01*
X171183489Y-100780261D01*
X171028845Y-100749500D01*
X171028842Y-100749500D01*
X170871158Y-100749500D01*
X170871155Y-100749500D01*
X170716510Y-100780261D01*
X170716498Y-100780264D01*
X170570827Y-100840602D01*
X170570814Y-100840609D01*
X170439711Y-100928210D01*
X170439707Y-100928213D01*
X170328213Y-101039707D01*
X170328210Y-101039711D01*
X170240609Y-101170814D01*
X170240602Y-101170827D01*
X170180264Y-101316498D01*
X170180261Y-101316510D01*
X170149500Y-101471153D01*
X110022900Y-101471153D01*
X110022900Y-100371153D01*
X154099500Y-100371153D01*
X154099500Y-100528846D01*
X154130261Y-100683489D01*
X154130264Y-100683501D01*
X154190602Y-100829172D01*
X154190609Y-100829185D01*
X154278210Y-100960288D01*
X154278213Y-100960292D01*
X154389707Y-101071786D01*
X154389711Y-101071789D01*
X154520814Y-101159390D01*
X154520827Y-101159397D01*
X154666498Y-101219735D01*
X154666503Y-101219737D01*
X154821153Y-101250499D01*
X154821156Y-101250500D01*
X154821158Y-101250500D01*
X154978844Y-101250500D01*
X154978845Y-101250499D01*
X155133497Y-101219737D01*
X155251592Y-101170821D01*
X155279172Y-101159397D01*
X155279172Y-101159396D01*
X155279179Y-101159394D01*
X155410289Y-101071789D01*
X155521789Y-100960289D01*
X155609394Y-100829179D01*
X155669737Y-100683497D01*
X155700500Y-100528842D01*
X155700500Y-100371158D01*
X155700500Y-100371155D01*
X155700499Y-100371153D01*
X155669738Y-100216510D01*
X155669737Y-100216503D01*
X155669735Y-100216498D01*
X155609397Y-100070827D01*
X155609390Y-100070814D01*
X155521789Y-99939711D01*
X155521786Y-99939707D01*
X155410292Y-99828213D01*
X155410288Y-99828210D01*
X155279185Y-99740609D01*
X155279172Y-99740602D01*
X155133501Y-99680264D01*
X155133489Y-99680261D01*
X154978845Y-99649500D01*
X154978842Y-99649500D01*
X154821158Y-99649500D01*
X154821155Y-99649500D01*
X154666510Y-99680261D01*
X154666498Y-99680264D01*
X154520827Y-99740602D01*
X154520814Y-99740609D01*
X154389711Y-99828210D01*
X154389707Y-99828213D01*
X154278213Y-99939707D01*
X154278210Y-99939711D01*
X154190609Y-100070814D01*
X154190602Y-100070827D01*
X154130264Y-100216498D01*
X154130261Y-100216510D01*
X154099500Y-100371153D01*
X110022900Y-100371153D01*
X110022900Y-98471153D01*
X136399500Y-98471153D01*
X136399500Y-98628846D01*
X136430261Y-98783489D01*
X136430264Y-98783501D01*
X136490602Y-98929172D01*
X136490609Y-98929185D01*
X136578210Y-99060288D01*
X136578213Y-99060292D01*
X136689707Y-99171786D01*
X136689711Y-99171789D01*
X136820814Y-99259390D01*
X136820827Y-99259397D01*
X136966498Y-99319735D01*
X136966503Y-99319737D01*
X137121153Y-99350499D01*
X137121156Y-99350500D01*
X137121158Y-99350500D01*
X137278844Y-99350500D01*
X137278845Y-99350499D01*
X137433497Y-99319737D01*
X137579179Y-99259394D01*
X137710289Y-99171789D01*
X137821789Y-99060289D01*
X137909394Y-98929179D01*
X137969737Y-98783497D01*
X138000500Y-98628842D01*
X138000500Y-98471158D01*
X138000500Y-98471155D01*
X138000499Y-98471153D01*
X137969738Y-98316510D01*
X137969737Y-98316503D01*
X137969735Y-98316498D01*
X137909397Y-98170827D01*
X137909390Y-98170814D01*
X137821789Y-98039711D01*
X137821786Y-98039707D01*
X137710292Y-97928213D01*
X137710288Y-97928210D01*
X137579185Y-97840609D01*
X137579172Y-97840602D01*
X137433501Y-97780264D01*
X137433489Y-97780261D01*
X137278845Y-97749500D01*
X137278842Y-97749500D01*
X137121158Y-97749500D01*
X137121155Y-97749500D01*
X136966510Y-97780261D01*
X136966498Y-97780264D01*
X136820827Y-97840602D01*
X136820814Y-97840609D01*
X136689711Y-97928210D01*
X136689707Y-97928213D01*
X136578213Y-98039707D01*
X136578210Y-98039711D01*
X136490609Y-98170814D01*
X136490602Y-98170827D01*
X136430264Y-98316498D01*
X136430261Y-98316510D01*
X136399500Y-98471153D01*
X110022900Y-98471153D01*
X110022900Y-97271153D01*
X117199500Y-97271153D01*
X117199500Y-97428846D01*
X117230261Y-97583489D01*
X117230264Y-97583501D01*
X117290602Y-97729172D01*
X117290609Y-97729185D01*
X117378210Y-97860288D01*
X117378213Y-97860292D01*
X117489707Y-97971786D01*
X117489711Y-97971789D01*
X117620814Y-98059390D01*
X117620827Y-98059397D01*
X117766498Y-98119735D01*
X117766503Y-98119737D01*
X117921153Y-98150499D01*
X117921156Y-98150500D01*
X117921158Y-98150500D01*
X118078844Y-98150500D01*
X118078845Y-98150499D01*
X118233497Y-98119737D01*
X118379179Y-98059394D01*
X118510289Y-97971789D01*
X118621789Y-97860289D01*
X118709394Y-97729179D01*
X118769737Y-97583497D01*
X118800500Y-97428842D01*
X118800500Y-97271158D01*
X118800500Y-97271155D01*
X118800499Y-97271153D01*
X118769738Y-97116510D01*
X118769737Y-97116503D01*
X118769735Y-97116498D01*
X118709397Y-96970827D01*
X118709390Y-96970814D01*
X118621789Y-96839711D01*
X118621786Y-96839707D01*
X118510292Y-96728213D01*
X118510288Y-96728210D01*
X118379185Y-96640609D01*
X118379172Y-96640602D01*
X118233501Y-96580264D01*
X118233489Y-96580261D01*
X118078845Y-96549500D01*
X118078842Y-96549500D01*
X117921158Y-96549500D01*
X117921155Y-96549500D01*
X117766510Y-96580261D01*
X117766498Y-96580264D01*
X117620827Y-96640602D01*
X117620814Y-96640609D01*
X117489711Y-96728210D01*
X117489707Y-96728213D01*
X117378213Y-96839707D01*
X117378210Y-96839711D01*
X117290609Y-96970814D01*
X117290602Y-96970827D01*
X117230264Y-97116498D01*
X117230261Y-97116510D01*
X117199500Y-97271153D01*
X110022900Y-97271153D01*
X110022900Y-92421153D01*
X166299500Y-92421153D01*
X166299500Y-92578846D01*
X166330261Y-92733489D01*
X166330264Y-92733501D01*
X166390602Y-92879172D01*
X166390609Y-92879185D01*
X166478210Y-93010288D01*
X166478213Y-93010292D01*
X166589707Y-93121786D01*
X166589711Y-93121789D01*
X166720814Y-93209390D01*
X166720827Y-93209397D01*
X166866498Y-93269735D01*
X166866503Y-93269737D01*
X167021153Y-93300499D01*
X167021156Y-93300500D01*
X167021158Y-93300500D01*
X167178844Y-93300500D01*
X167178845Y-93300499D01*
X167333497Y-93269737D01*
X167479179Y-93209394D01*
X167610289Y-93121789D01*
X167721789Y-93010289D01*
X167809394Y-92879179D01*
X167869737Y-92733497D01*
X167900500Y-92578842D01*
X167900500Y-92471153D01*
X168749500Y-92471153D01*
X168749500Y-92628846D01*
X168780261Y-92783489D01*
X168780264Y-92783501D01*
X168840602Y-92929172D01*
X168840609Y-92929185D01*
X168928210Y-93060288D01*
X168928213Y-93060292D01*
X169039707Y-93171786D01*
X169039711Y-93171789D01*
X169170814Y-93259390D01*
X169170827Y-93259397D01*
X169270060Y-93300500D01*
X169316503Y-93319737D01*
X169471153Y-93350499D01*
X169471156Y-93350500D01*
X169471158Y-93350500D01*
X169628844Y-93350500D01*
X169628845Y-93350499D01*
X169783497Y-93319737D01*
X169929179Y-93259394D01*
X170060289Y-93171789D01*
X170171789Y-93060289D01*
X170259394Y-92929179D01*
X170319737Y-92783497D01*
X170350500Y-92628842D01*
X170350500Y-92471158D01*
X170350500Y-92471155D01*
X170350499Y-92471153D01*
X170319738Y-92316510D01*
X170319737Y-92316503D01*
X170319735Y-92316498D01*
X170259397Y-92170827D01*
X170259390Y-92170814D01*
X170171789Y-92039711D01*
X170171786Y-92039707D01*
X170060292Y-91928213D01*
X170060288Y-91928210D01*
X169929185Y-91840609D01*
X169929172Y-91840602D01*
X169783501Y-91780264D01*
X169783489Y-91780261D01*
X169628845Y-91749500D01*
X169628842Y-91749500D01*
X169471158Y-91749500D01*
X169471155Y-91749500D01*
X169316510Y-91780261D01*
X169316498Y-91780264D01*
X169170827Y-91840602D01*
X169170814Y-91840609D01*
X169039711Y-91928210D01*
X169039707Y-91928213D01*
X168928213Y-92039707D01*
X168928210Y-92039711D01*
X168840609Y-92170814D01*
X168840602Y-92170827D01*
X168780264Y-92316498D01*
X168780261Y-92316510D01*
X168749500Y-92471153D01*
X167900500Y-92471153D01*
X167900500Y-92421158D01*
X167900500Y-92421155D01*
X167900499Y-92421153D01*
X167879684Y-92316510D01*
X167869737Y-92266503D01*
X167830102Y-92170814D01*
X167809397Y-92120827D01*
X167809390Y-92120814D01*
X167721789Y-91989711D01*
X167721786Y-91989707D01*
X167610292Y-91878213D01*
X167610288Y-91878210D01*
X167479185Y-91790609D01*
X167479172Y-91790602D01*
X167333501Y-91730264D01*
X167333489Y-91730261D01*
X167178845Y-91699500D01*
X167178842Y-91699500D01*
X167021158Y-91699500D01*
X167021155Y-91699500D01*
X166866510Y-91730261D01*
X166866498Y-91730264D01*
X166720827Y-91790602D01*
X166720814Y-91790609D01*
X166589711Y-91878210D01*
X166589707Y-91878213D01*
X166478213Y-91989707D01*
X166478210Y-91989711D01*
X166390609Y-92120814D01*
X166390602Y-92120827D01*
X166330264Y-92266498D01*
X166330261Y-92266510D01*
X166299500Y-92421153D01*
X110022900Y-92421153D01*
X110022900Y-90321153D01*
X183149500Y-90321153D01*
X183149500Y-90478846D01*
X183180261Y-90633489D01*
X183180264Y-90633501D01*
X183240602Y-90779172D01*
X183240609Y-90779185D01*
X183328210Y-90910288D01*
X183328213Y-90910292D01*
X183439707Y-91021786D01*
X183439711Y-91021789D01*
X183570814Y-91109390D01*
X183570827Y-91109397D01*
X183716498Y-91169735D01*
X183716503Y-91169737D01*
X183871153Y-91200499D01*
X183871156Y-91200500D01*
X183871158Y-91200500D01*
X184028844Y-91200500D01*
X184028845Y-91200499D01*
X184183497Y-91169737D01*
X184329179Y-91109394D01*
X184460289Y-91021789D01*
X184571789Y-90910289D01*
X184659394Y-90779179D01*
X184719737Y-90633497D01*
X184750500Y-90478842D01*
X184750500Y-90321158D01*
X184750500Y-90321155D01*
X184750499Y-90321153D01*
X184719738Y-90166510D01*
X184719737Y-90166503D01*
X184719735Y-90166498D01*
X184659397Y-90020827D01*
X184659390Y-90020814D01*
X184571789Y-89889711D01*
X184571786Y-89889707D01*
X184460292Y-89778213D01*
X184460288Y-89778210D01*
X184329185Y-89690609D01*
X184329172Y-89690602D01*
X184183501Y-89630264D01*
X184183489Y-89630261D01*
X184028845Y-89599500D01*
X184028842Y-89599500D01*
X183871158Y-89599500D01*
X183871155Y-89599500D01*
X183716510Y-89630261D01*
X183716498Y-89630264D01*
X183570827Y-89690602D01*
X183570814Y-89690609D01*
X183439711Y-89778210D01*
X183439707Y-89778213D01*
X183328213Y-89889707D01*
X183328210Y-89889711D01*
X183240609Y-90020814D01*
X183240602Y-90020827D01*
X183180264Y-90166498D01*
X183180261Y-90166510D01*
X183149500Y-90321153D01*
X110022900Y-90321153D01*
X110022900Y-87771153D01*
X115449500Y-87771153D01*
X115449500Y-87928846D01*
X115480261Y-88083489D01*
X115480264Y-88083501D01*
X115540602Y-88229172D01*
X115540609Y-88229185D01*
X115628210Y-88360288D01*
X115628213Y-88360292D01*
X115739707Y-88471786D01*
X115739711Y-88471789D01*
X115870814Y-88559390D01*
X115870827Y-88559397D01*
X115970060Y-88600500D01*
X116016503Y-88619737D01*
X116171153Y-88650499D01*
X116171156Y-88650500D01*
X116171158Y-88650500D01*
X116328844Y-88650500D01*
X116328845Y-88650499D01*
X116483497Y-88619737D01*
X116629179Y-88559394D01*
X116760289Y-88471789D01*
X116871789Y-88360289D01*
X116959394Y-88229179D01*
X117019737Y-88083497D01*
X117050500Y-87928842D01*
X117050500Y-87771158D01*
X117050500Y-87771155D01*
X117044155Y-87739258D01*
X117044155Y-87739257D01*
X117040554Y-87721153D01*
X117999500Y-87721153D01*
X117999500Y-87878846D01*
X118030261Y-88033489D01*
X118030264Y-88033501D01*
X118090602Y-88179172D01*
X118090609Y-88179185D01*
X118178210Y-88310288D01*
X118178213Y-88310292D01*
X118289707Y-88421786D01*
X118289711Y-88421789D01*
X118420814Y-88509390D01*
X118420827Y-88509397D01*
X118566498Y-88569735D01*
X118566503Y-88569737D01*
X118721153Y-88600499D01*
X118721156Y-88600500D01*
X118721158Y-88600500D01*
X118878844Y-88600500D01*
X118878845Y-88600499D01*
X119033497Y-88569737D01*
X119179179Y-88509394D01*
X119310289Y-88421789D01*
X119421789Y-88310289D01*
X119509394Y-88179179D01*
X119569737Y-88033497D01*
X119600500Y-87878842D01*
X119600500Y-87721158D01*
X119600500Y-87721155D01*
X119600499Y-87721153D01*
X119582204Y-87629179D01*
X119569737Y-87566503D01*
X119530102Y-87470814D01*
X119509397Y-87420827D01*
X119509390Y-87420814D01*
X119484763Y-87383957D01*
X119442798Y-87321153D01*
X122099500Y-87321153D01*
X122099500Y-87478846D01*
X122130261Y-87633489D01*
X122130264Y-87633501D01*
X122190602Y-87779172D01*
X122190609Y-87779185D01*
X122278210Y-87910288D01*
X122278213Y-87910292D01*
X122389707Y-88021786D01*
X122389711Y-88021789D01*
X122520814Y-88109390D01*
X122520827Y-88109397D01*
X122620060Y-88150500D01*
X122666503Y-88169737D01*
X122821153Y-88200499D01*
X122821156Y-88200500D01*
X122821158Y-88200500D01*
X122978844Y-88200500D01*
X122978845Y-88200499D01*
X123133497Y-88169737D01*
X123279179Y-88109394D01*
X123410289Y-88021789D01*
X123521789Y-87910289D01*
X123609394Y-87779179D01*
X123612719Y-87771153D01*
X123630102Y-87729185D01*
X123669737Y-87633497D01*
X123700500Y-87478842D01*
X123700500Y-87321158D01*
X123700500Y-87321155D01*
X123700499Y-87321153D01*
X123694244Y-87289707D01*
X123669737Y-87166503D01*
X123659121Y-87140874D01*
X123609394Y-87020820D01*
X123576207Y-86971153D01*
X132799500Y-86971153D01*
X132799500Y-87128846D01*
X132830261Y-87283489D01*
X132830264Y-87283501D01*
X132890602Y-87429172D01*
X132890609Y-87429185D01*
X132978210Y-87560288D01*
X132978213Y-87560292D01*
X133089707Y-87671786D01*
X133089711Y-87671789D01*
X133220814Y-87759390D01*
X133220827Y-87759397D01*
X133366498Y-87819735D01*
X133366503Y-87819737D01*
X133521153Y-87850499D01*
X133521156Y-87850500D01*
X133521158Y-87850500D01*
X133678844Y-87850500D01*
X133678845Y-87850499D01*
X133833497Y-87819737D01*
X133979179Y-87759394D01*
X134110289Y-87671789D01*
X134221789Y-87560289D01*
X134309394Y-87429179D01*
X134312854Y-87420827D01*
X134341984Y-87350499D01*
X134369737Y-87283497D01*
X134384715Y-87208194D01*
X134392084Y-87171153D01*
X141449500Y-87171153D01*
X141449500Y-87328846D01*
X141480261Y-87483489D01*
X141480264Y-87483501D01*
X141540602Y-87629172D01*
X141540609Y-87629185D01*
X141628210Y-87760288D01*
X141628213Y-87760292D01*
X141739707Y-87871786D01*
X141739711Y-87871789D01*
X141870814Y-87959390D01*
X141870827Y-87959397D01*
X142016498Y-88019735D01*
X142016503Y-88019737D01*
X142171153Y-88050499D01*
X142171156Y-88050500D01*
X142171158Y-88050500D01*
X142328844Y-88050500D01*
X142328845Y-88050499D01*
X142483497Y-88019737D01*
X142629179Y-87959394D01*
X142760289Y-87871789D01*
X142871789Y-87760289D01*
X142959394Y-87629179D01*
X143019737Y-87483497D01*
X143050500Y-87328842D01*
X143050500Y-87271153D01*
X144099500Y-87271153D01*
X144099500Y-87428846D01*
X144130261Y-87583489D01*
X144130264Y-87583501D01*
X144190602Y-87729172D01*
X144190609Y-87729185D01*
X144278210Y-87860288D01*
X144278213Y-87860292D01*
X144389707Y-87971786D01*
X144389711Y-87971789D01*
X144520814Y-88059390D01*
X144520827Y-88059397D01*
X144666498Y-88119735D01*
X144666503Y-88119737D01*
X144821153Y-88150499D01*
X144821156Y-88150500D01*
X144821158Y-88150500D01*
X144978844Y-88150500D01*
X144978845Y-88150499D01*
X145133497Y-88119737D01*
X145279179Y-88059394D01*
X145410289Y-87971789D01*
X145521789Y-87860289D01*
X145609394Y-87729179D01*
X145612719Y-87721153D01*
X145623067Y-87696166D01*
X145669737Y-87583497D01*
X145700500Y-87428842D01*
X145700500Y-87271158D01*
X145700500Y-87271155D01*
X145700499Y-87271153D01*
X145682012Y-87178213D01*
X145669737Y-87116503D01*
X145669735Y-87116498D01*
X145609397Y-86970827D01*
X145609390Y-86970814D01*
X145521789Y-86839711D01*
X145521786Y-86839707D01*
X145410292Y-86728213D01*
X145410288Y-86728210D01*
X145279185Y-86640609D01*
X145279172Y-86640602D01*
X145133501Y-86580264D01*
X145133489Y-86580261D01*
X144978845Y-86549500D01*
X144978842Y-86549500D01*
X144821158Y-86549500D01*
X144821155Y-86549500D01*
X144666510Y-86580261D01*
X144666498Y-86580264D01*
X144520827Y-86640602D01*
X144520814Y-86640609D01*
X144389711Y-86728210D01*
X144389707Y-86728213D01*
X144278213Y-86839707D01*
X144278210Y-86839711D01*
X144190609Y-86970814D01*
X144190602Y-86970827D01*
X144130264Y-87116498D01*
X144130261Y-87116510D01*
X144099500Y-87271153D01*
X143050500Y-87271153D01*
X143050500Y-87171158D01*
X143050500Y-87171155D01*
X143050499Y-87171153D01*
X143044422Y-87140602D01*
X143019737Y-87016503D01*
X143000955Y-86971158D01*
X142959397Y-86870827D01*
X142959390Y-86870814D01*
X142871789Y-86739711D01*
X142871786Y-86739707D01*
X142760292Y-86628213D01*
X142760288Y-86628210D01*
X142629185Y-86540609D01*
X142629172Y-86540602D01*
X142483501Y-86480264D01*
X142483489Y-86480261D01*
X142437701Y-86471153D01*
X149099500Y-86471153D01*
X149099500Y-86628846D01*
X149130261Y-86783489D01*
X149130264Y-86783501D01*
X149190602Y-86929172D01*
X149190609Y-86929185D01*
X149278210Y-87060288D01*
X149278213Y-87060292D01*
X149389707Y-87171786D01*
X149389711Y-87171789D01*
X149520814Y-87259390D01*
X149520827Y-87259397D01*
X149594013Y-87289711D01*
X149666503Y-87319737D01*
X149821153Y-87350499D01*
X149821156Y-87350500D01*
X149821158Y-87350500D01*
X149978844Y-87350500D01*
X149978845Y-87350499D01*
X150133497Y-87319737D01*
X150279179Y-87259394D01*
X150410289Y-87171789D01*
X150521789Y-87060289D01*
X150609394Y-86929179D01*
X150669737Y-86783497D01*
X150700500Y-86628842D01*
X150700500Y-86471158D01*
X150700500Y-86471155D01*
X150700499Y-86471153D01*
X150683061Y-86383489D01*
X150669737Y-86316503D01*
X150669735Y-86316498D01*
X150609397Y-86170827D01*
X150609390Y-86170814D01*
X150521789Y-86039711D01*
X150521786Y-86039707D01*
X150410292Y-85928213D01*
X150410288Y-85928210D01*
X150279185Y-85840609D01*
X150279172Y-85840602D01*
X150133501Y-85780264D01*
X150133489Y-85780261D01*
X149978845Y-85749500D01*
X149978842Y-85749500D01*
X149821158Y-85749500D01*
X149821155Y-85749500D01*
X149666510Y-85780261D01*
X149666498Y-85780264D01*
X149520827Y-85840602D01*
X149520814Y-85840609D01*
X149389711Y-85928210D01*
X149389707Y-85928213D01*
X149278213Y-86039707D01*
X149278210Y-86039711D01*
X149190609Y-86170814D01*
X149190602Y-86170827D01*
X149130264Y-86316498D01*
X149130261Y-86316510D01*
X149099500Y-86471153D01*
X142437701Y-86471153D01*
X142328845Y-86449500D01*
X142328842Y-86449500D01*
X142171158Y-86449500D01*
X142171155Y-86449500D01*
X142016510Y-86480261D01*
X142016498Y-86480264D01*
X141870827Y-86540602D01*
X141870814Y-86540609D01*
X141739711Y-86628210D01*
X141739707Y-86628213D01*
X141628213Y-86739707D01*
X141628210Y-86739711D01*
X141540609Y-86870814D01*
X141540602Y-86870827D01*
X141480264Y-87016498D01*
X141480261Y-87016510D01*
X141449500Y-87171153D01*
X134392084Y-87171153D01*
X134398107Y-87140875D01*
X134398107Y-87140874D01*
X134400500Y-87128844D01*
X134400500Y-86971155D01*
X134400499Y-86971153D01*
X134380543Y-86870827D01*
X134369737Y-86816503D01*
X134337929Y-86739711D01*
X134309397Y-86670827D01*
X134309390Y-86670814D01*
X134221789Y-86539711D01*
X134221786Y-86539707D01*
X134110292Y-86428213D01*
X134110288Y-86428210D01*
X133979185Y-86340609D01*
X133979172Y-86340602D01*
X133833501Y-86280264D01*
X133833489Y-86280261D01*
X133678845Y-86249500D01*
X133678842Y-86249500D01*
X133521158Y-86249500D01*
X133521155Y-86249500D01*
X133366510Y-86280261D01*
X133366498Y-86280264D01*
X133220827Y-86340602D01*
X133220814Y-86340609D01*
X133089711Y-86428210D01*
X133089707Y-86428213D01*
X132978213Y-86539707D01*
X132978210Y-86539711D01*
X132890609Y-86670814D01*
X132890602Y-86670827D01*
X132830264Y-86816498D01*
X132830261Y-86816510D01*
X132799500Y-86971153D01*
X123576207Y-86971153D01*
X123521789Y-86889711D01*
X123521786Y-86889707D01*
X123410292Y-86778213D01*
X123410288Y-86778210D01*
X123279185Y-86690609D01*
X123279172Y-86690602D01*
X123133501Y-86630264D01*
X123133489Y-86630261D01*
X122978845Y-86599500D01*
X122978842Y-86599500D01*
X122821158Y-86599500D01*
X122821155Y-86599500D01*
X122666510Y-86630261D01*
X122666498Y-86630264D01*
X122520827Y-86690602D01*
X122520814Y-86690609D01*
X122389711Y-86778210D01*
X122389707Y-86778213D01*
X122278213Y-86889707D01*
X122278210Y-86889711D01*
X122190609Y-87020814D01*
X122190602Y-87020827D01*
X122130264Y-87166498D01*
X122130261Y-87166510D01*
X122099500Y-87321153D01*
X119442798Y-87321153D01*
X119421789Y-87289711D01*
X119421786Y-87289707D01*
X119310292Y-87178213D01*
X119310288Y-87178210D01*
X119179185Y-87090609D01*
X119179172Y-87090602D01*
X119033501Y-87030264D01*
X119033489Y-87030261D01*
X118878845Y-86999500D01*
X118878842Y-86999500D01*
X118721158Y-86999500D01*
X118721155Y-86999500D01*
X118566510Y-87030261D01*
X118566498Y-87030264D01*
X118420827Y-87090602D01*
X118420814Y-87090609D01*
X118289711Y-87178210D01*
X118289707Y-87178213D01*
X118178213Y-87289707D01*
X118178210Y-87289711D01*
X118090609Y-87420814D01*
X118090602Y-87420827D01*
X118030264Y-87566498D01*
X118030261Y-87566510D01*
X117999500Y-87721153D01*
X117040554Y-87721153D01*
X117023117Y-87633497D01*
X117019737Y-87616503D01*
X117006062Y-87583489D01*
X116959397Y-87470827D01*
X116959390Y-87470814D01*
X116871789Y-87339711D01*
X116871786Y-87339707D01*
X116760292Y-87228213D01*
X116760288Y-87228210D01*
X116629185Y-87140609D01*
X116629172Y-87140602D01*
X116483501Y-87080264D01*
X116483489Y-87080261D01*
X116328845Y-87049500D01*
X116328842Y-87049500D01*
X116171158Y-87049500D01*
X116171155Y-87049500D01*
X116016510Y-87080261D01*
X116016498Y-87080264D01*
X115870827Y-87140602D01*
X115870814Y-87140609D01*
X115739711Y-87228210D01*
X115739707Y-87228213D01*
X115628213Y-87339707D01*
X115628210Y-87339711D01*
X115540609Y-87470814D01*
X115540602Y-87470827D01*
X115480264Y-87616498D01*
X115480261Y-87616510D01*
X115449500Y-87771153D01*
X110022900Y-87771153D01*
X110022900Y-85624000D01*
X110042585Y-85556961D01*
X110095389Y-85511206D01*
X110146900Y-85500000D01*
X159428305Y-85500000D01*
X159495344Y-85519685D01*
G37*
%TD.AperFunction*%
%TD*%
M02*
